<svg width="414" height="379" viewBox="0 0 414 379" fill="none" xmlns="http://www.w3.org/2000/svg">
<ellipse cx="226" cy="367" rx="174" ry="12" fill="black" fill-opacity="0.5"/>
<path d="M108.738 208.224L176.736 204.935C176.736 204.935 236.552 180.951 264.394 229.02C292.236 277.089 212.634 337.411 212.634 337.411L184.645 331.477L200.716 271.198C200.716 271.198 132.02 288.236 108.738 208.224Z" fill="#00ADB5"/>
<path d="M108.738 208.224L108.704 207.526C108.49 207.536 108.293 207.644 108.169 207.818C108.044 207.992 108.007 208.214 108.066 208.42L108.738 208.224ZM176.736 204.935L176.77 205.634L176.888 205.628L176.997 205.585L176.736 204.935ZM212.634 337.411L212.489 338.095L212.802 338.162L213.056 337.969L212.634 337.411ZM184.645 331.477L183.969 331.297L183.779 332.008L184.5 332.161L184.645 331.477ZM200.716 271.198L201.392 271.378L201.697 270.234L200.548 270.519L200.716 271.198ZM108.772 208.923L176.77 205.634L176.703 204.237L108.704 207.526L108.772 208.923ZM212.779 336.727L184.79 330.793L184.5 332.161L212.489 338.095L212.779 336.727ZM185.32 331.657L201.392 271.378L200.04 271.018L183.969 331.297L185.32 331.657ZM200.716 271.198C200.548 270.519 200.548 270.519 200.548 270.519C200.547 270.519 200.547 270.519 200.546 270.52C200.545 270.52 200.542 270.521 200.538 270.521C200.531 270.523 200.52 270.526 200.504 270.53C200.473 270.537 200.426 270.548 200.363 270.562C200.237 270.591 200.047 270.633 199.797 270.685C199.298 270.788 198.559 270.93 197.608 271.083C195.705 271.389 192.956 271.739 189.583 271.911C182.834 272.256 173.599 271.888 163.65 269.043C143.796 263.367 120.983 247.803 109.41 208.029L108.066 208.42C119.775 248.657 142.951 264.58 163.265 270.388C173.4 273.285 182.795 273.658 189.654 273.309C193.085 273.134 195.885 272.777 197.83 272.464C198.803 272.308 199.562 272.162 200.081 272.055C200.34 272.001 200.539 271.957 200.674 271.926C200.741 271.911 200.793 271.899 200.828 271.89C200.846 271.886 200.859 271.883 200.869 271.881C200.874 271.88 200.877 271.879 200.88 271.878C200.881 271.878 200.882 271.877 200.883 271.877C200.884 271.877 200.885 271.877 200.716 271.198ZM176.736 204.935C176.997 205.585 176.997 205.585 176.997 205.585C176.997 205.584 176.998 205.584 176.998 205.584C177 205.583 177.002 205.582 177.005 205.581C177.012 205.579 177.022 205.575 177.036 205.569C177.063 205.558 177.105 205.542 177.16 205.521C177.271 205.478 177.438 205.415 177.657 205.334C178.095 205.173 178.744 204.941 179.582 204.662C181.257 204.105 183.684 203.362 186.686 202.618C192.691 201.13 200.979 199.645 210.124 199.651C228.402 199.664 250.033 205.622 263.789 229.371L264.999 228.669C250.913 204.349 228.715 198.265 210.125 198.252C200.835 198.246 192.429 199.753 186.349 201.26C183.308 202.014 180.845 202.768 179.14 203.335C178.288 203.619 177.624 203.855 177.173 204.022C176.947 204.105 176.774 204.17 176.657 204.215C176.599 204.238 176.554 204.255 176.524 204.267C176.509 204.273 176.497 204.278 176.489 204.281C176.485 204.283 176.482 204.284 176.48 204.285C176.479 204.285 176.478 204.286 176.477 204.286C176.477 204.286 176.476 204.286 176.736 204.935ZM263.789 229.371C270.632 241.186 270.888 253.764 267.38 266.043C263.867 278.338 256.585 290.303 248.403 300.812C240.225 311.315 231.175 320.328 224.166 326.718C220.662 329.912 217.67 332.448 215.556 334.185C214.499 335.053 213.661 335.722 213.088 336.172C212.802 336.398 212.582 336.569 212.434 336.683C212.36 336.74 212.304 336.783 212.267 336.812C212.248 336.826 212.234 336.837 212.225 336.844C212.22 336.847 212.217 336.85 212.215 336.851C212.213 336.852 212.213 336.853 212.212 336.853C212.212 336.854 212.211 336.854 212.634 337.411C213.056 337.969 213.057 337.968 213.058 337.968C213.058 337.967 213.059 337.966 213.061 337.965C213.063 337.963 213.067 337.961 213.072 337.957C213.082 337.949 213.097 337.938 213.116 337.923C213.155 337.893 213.213 337.849 213.289 337.79C213.44 337.673 213.664 337.5 213.954 337.272C214.533 336.815 215.379 336.141 216.444 335.266C218.574 333.516 221.584 330.964 225.108 327.752C232.154 321.329 241.264 312.257 249.507 301.671C257.745 291.091 265.143 278.963 268.725 266.427C272.311 253.876 272.077 240.889 264.999 228.669L263.789 229.371Z" fill="black"/>
<path d="M213.916 336.464L185.951 327.596L175.173 351.367C175.173 351.367 199.116 359.631 215.202 360.224L207.366 351.407L213.916 336.464Z" fill="#EEEEEE" stroke="black" stroke-width="1.39887" stroke-linejoin="round"/>
<path d="M105.975 210.589L195.716 209.83C195.716 209.83 258.829 222.866 255.496 278.316C252.164 333.766 152.489 340.099 152.489 340.099L132.431 319.695L181.952 272.266C181.952 272.266 114.448 287.534 105.975 210.589Z" fill="#00ADB5" stroke="black" stroke-width="1.39887"/>
<path d="M154.081 340.018L135.664 317.181L113.551 331.048C113.551 331.048 128.948 351.159 142.032 360.537L140.368 348.858L154.081 340.018Z" fill="#EEEEEE" stroke="black" stroke-width="1.39887" stroke-linejoin="round"/>
<path fill-rule="evenodd" clip-rule="evenodd" d="M114.375 117.666C115.665 115.875 116.676 113.851 117.303 111.568C122.039 94.3385 107.387 83.1573 95.4629 80.2565C83.5383 77.3556 43.9312 108.665 87.2807 130.186C87.3977 130.18 87.5165 130.172 87.6371 130.165C94.5831 135.661 96.8051 142.915 99.4712 151.618C100.559 155.168 101.72 158.959 103.306 162.97L123.128 147.315C123.57 135.646 120.413 126.331 114.375 117.666Z" fill="#F5B9AB"/>
<path d="M117.303 111.568L117.978 111.754L117.978 111.754L117.303 111.568ZM114.375 117.666L113.807 117.257C113.634 117.498 113.631 117.823 113.801 118.066L114.375 117.666ZM95.4629 80.2565L95.6282 79.5769L95.4629 80.2565ZM87.2807 130.186L86.9697 130.813C87.078 130.866 87.1984 130.891 87.3191 130.884L87.2807 130.186ZM87.6371 130.165L88.0711 129.616C87.9352 129.508 87.7641 129.455 87.5911 129.467L87.6371 130.165ZM99.4712 151.618L100.14 151.413L99.4712 151.618ZM103.306 162.97L102.655 163.227C102.737 163.433 102.911 163.588 103.124 163.646C103.338 163.703 103.566 163.656 103.739 163.519L103.306 162.97ZM123.128 147.315L123.562 147.864C123.722 147.737 123.819 147.546 123.827 147.341L123.128 147.315ZM116.629 111.383C116.025 113.58 115.051 115.529 113.807 117.257L114.943 118.075C116.278 116.22 117.327 114.121 117.978 111.754L116.629 111.383ZM95.2976 80.9361C101.142 82.3578 107.649 85.8117 112.1 90.9947C116.53 96.1531 118.927 103.02 116.629 111.383L117.978 111.754C120.415 102.886 117.854 95.5482 113.161 90.0833C108.489 84.6431 101.708 81.0559 95.6282 79.5769L95.2976 80.9361ZM87.5918 129.56C76.8403 124.222 71.3609 118.34 69.2499 112.654C67.1458 106.987 68.3352 101.367 71.2469 96.4177C74.1641 91.4586 78.7865 87.2215 83.4209 84.4055C85.7356 82.9991 88.0352 81.9582 90.1045 81.3581C92.1869 80.7541 93.9745 80.6142 95.2976 80.9361L95.6282 79.5769C93.9702 79.1735 91.9116 79.3775 89.7148 80.0146C87.505 80.6555 85.0926 81.7529 82.6945 83.21C77.9035 86.1212 73.0976 90.5127 70.0412 95.7084C66.9792 100.914 65.6496 106.976 67.9385 113.141C70.2207 119.288 76.0464 125.39 86.9697 130.813L87.5918 129.56ZM87.5911 129.467C87.4731 129.474 87.3568 129.481 87.2424 129.488L87.3191 130.884C87.4387 130.878 87.56 130.871 87.6831 130.862L87.5911 129.467ZM100.14 151.413C97.4829 142.739 95.2129 135.267 88.0711 129.616L87.2031 130.713C93.9533 136.055 96.1274 143.09 98.8024 151.823L100.14 151.413ZM103.956 162.713C102.382 158.731 101.228 154.965 100.14 151.413L98.8024 151.823C99.8892 155.37 101.058 159.187 102.655 163.227L103.956 162.713ZM122.695 146.766L102.872 162.421L103.739 163.519L123.562 147.864L122.695 146.766ZM113.801 118.066C119.759 126.615 122.865 135.782 122.429 147.289L123.827 147.341C124.275 135.509 121.068 126.046 114.949 117.266L113.801 118.066Z" fill="black"/>
<path d="M69.2294 111.666C69.052 118.418 80.1789 127.235 84.6748 128.277C55.1064 130.956 50.4302 94.8374 60.3866 95.2364C54.7117 84.5648 63.7319 73.3081 77.2179 76.4296C86.0103 47.4441 105.263 73.5661 101.156 82.3201C97.0494 91.0741 86.0635 92.8625 83.1616 97.9095C80.2597 102.957 86.2456 117.513 80.0368 111.396C73.8281 105.279 69.4511 103.225 69.2294 111.666Z" fill="#00ADB5" stroke="black" stroke-width="1.39887"/>
<path d="M197.864 206.774C210.62 177.384 169.652 147.401 160.615 141.243C159.454 140.452 158.275 139.756 157.046 139.074C133.529 126.013 100.434 124.304 88.3872 148.356C67.3292 190.398 119.829 234.289 139.22 262.247L197.864 206.774Z" fill="#EEEEEE"/>
<path d="M160.615 141.243L161.009 140.665L160.615 141.243ZM197.864 206.774L198.345 207.282L198.449 207.184L198.506 207.052L197.864 206.774ZM139.22 262.247L138.645 262.645C138.761 262.813 138.945 262.921 139.147 262.942C139.35 262.963 139.552 262.895 139.7 262.755L139.22 262.247ZM88.3872 148.356L87.7619 148.042L88.3872 148.356ZM157.046 139.074L157.386 138.463L157.046 139.074ZM160.221 141.821C164.721 144.888 177.157 153.878 186.871 165.74C196.609 177.632 203.435 192.182 197.222 206.495L198.506 207.052C205.049 191.976 197.769 176.84 187.953 164.853C178.112 152.837 165.546 143.757 161.009 140.665L160.221 141.821ZM197.383 206.266L138.739 261.739L139.7 262.755L198.345 207.282L197.383 206.266ZM139.794 261.848C134.923 254.824 127.976 246.804 120.671 238.119C113.352 229.416 105.654 220.023 99.2203 210.2C86.3368 190.527 78.6596 169.338 89.0126 148.669L87.7619 148.042C77.0568 169.415 85.1006 191.193 98.0501 210.966C104.533 220.866 112.28 230.315 119.6 239.019C126.934 247.74 133.821 255.69 138.645 262.645L139.794 261.848ZM156.707 139.685C157.925 140.362 159.085 141.046 160.221 141.821L161.009 140.665C159.824 139.857 158.624 139.15 157.386 138.463L156.707 139.685ZM157.386 138.463C145.53 131.878 131.242 128.142 118.364 129.1C105.468 130.06 93.9236 135.74 87.7619 148.042L89.0126 148.669C94.8981 136.919 105.924 131.428 118.468 130.495C131.028 129.56 145.046 133.209 156.707 139.685L157.386 138.463Z" fill="black"/>
<path d="M213.68 191.568L193.339 167.621L163.777 190.647C159.091 156.9 121.546 129.692 107.019 133.459C67.9654 143.588 112.243 231.239 140.491 243.922C168.739 256.606 213.68 191.568 213.68 191.568Z" fill="#EEEEEE" stroke="black" stroke-width="1.39887"/>
<path d="M195.103 165.683L192.521 168.259L213.19 192.272L217.409 188.075C224.484 181.036 223.345 169.283 215.049 163.735C208.786 159.547 200.437 160.362 195.103 165.683Z" fill="#F5B9AB" stroke="black" stroke-width="1.39887" stroke-linejoin="round"/>
<path fill-rule="evenodd" clip-rule="evenodd" d="M91.9355 259.665C91.6057 259.579 91.2737 259.822 91.2743 260.163L91.4331 351.339H73.1881C72.9108 351.339 72.6859 351.564 72.6859 351.841L72.6859 362.941C72.6859 363.218 72.9108 363.443 73.1881 363.443H125.094C125.372 363.443 125.596 363.218 125.596 362.941V351.841C125.596 351.564 125.372 351.339 125.094 351.339H105.279V259.688C105.279 259.389 105.019 259.156 104.722 259.19C103.727 259.304 102.794 259.421 101.91 259.532C97.8482 260.044 94.855 260.421 91.9355 259.665Z" fill="#00ADB5"/>
<path d="M91.2743 260.163L90.5748 260.164V260.164L91.2743 260.163ZM91.9355 259.665L92.1108 258.988V258.988L91.9355 259.665ZM91.4331 351.339V352.039H92.1338L92.1326 351.338L91.4331 351.339ZM72.6859 351.841H73.3853H72.6859ZM72.6859 362.941H71.9865H72.6859ZM105.279 351.339H104.579V352.039H105.279V351.339ZM104.722 259.19L104.642 258.495L104.642 258.495L104.722 259.19ZM101.91 259.532L101.823 258.838L101.91 259.532ZM91.9737 260.161C91.9738 260.23 91.9378 260.286 91.899 260.315C91.8621 260.342 91.8109 260.355 91.7601 260.342L92.1108 258.988C91.366 258.795 90.5734 259.336 90.5748 260.164L91.9737 260.161ZM92.1326 351.338L91.9737 260.161L90.5748 260.164L90.7337 351.34L92.1326 351.338ZM73.1881 352.039H91.4331V350.64H73.1881V352.039ZM73.3853 351.841C73.3853 351.95 73.297 352.039 73.1881 352.039V350.64C72.5245 350.64 71.9865 351.178 71.9865 351.841H73.3853ZM73.3853 362.941L73.3853 351.841H71.9865L71.9865 362.941H73.3853ZM73.1881 362.743C73.297 362.743 73.3853 362.832 73.3853 362.941H71.9865C71.9865 363.604 72.5245 364.142 73.1881 364.142V362.743ZM125.094 362.743H73.1881V364.142H125.094V362.743ZM124.897 362.941C124.897 362.832 124.985 362.743 125.094 362.743V364.142C125.758 364.142 126.296 363.604 126.296 362.941H124.897ZM124.897 351.841V362.941H126.296V351.841H124.897ZM125.094 352.039C124.985 352.039 124.897 351.95 124.897 351.841H126.296C126.296 351.178 125.758 350.64 125.094 350.64V352.039ZM105.279 352.039H125.094V350.64H105.279V352.039ZM104.579 259.688V351.339H105.978V259.688H104.579ZM104.801 259.885C104.682 259.898 104.579 259.805 104.579 259.688H105.978C105.978 258.972 105.356 258.413 104.642 258.495L104.801 259.885ZM101.998 260.226C102.881 260.115 103.811 259.998 104.801 259.885L104.642 258.495C103.643 258.609 102.706 258.727 101.823 258.838L101.998 260.226ZM91.7601 260.342C94.8346 261.138 97.9712 260.733 101.998 260.226L101.823 258.838C97.7253 259.354 94.8754 259.704 92.1108 258.988L91.7601 260.342Z" fill="black"/>
<path d="M70.3887 168.789C82.3219 197.232 59.9097 207.653 60.1709 226.561C60.5323 252.727 103.206 277.975 129.912 223.303" stroke="black" stroke-width="1.39887"/>
<rect x="22.3704" y="113.916" width="32.5071" height="105.129" rx="15.8191" transform="rotate(-22.7603 22.3704 113.916)" fill="#00ADB5" stroke="black" stroke-width="1.39887"/>
<rect x="316.189" y="221.309" width="15.5619" height="142.132" rx="0.502194" fill="#00ADB5" stroke="black" stroke-width="1.39887"/>
<rect x="199.858" y="220.664" width="52.107" height="112.515" rx="24.5617" transform="rotate(88.7489 199.858 220.664)" fill="#00ADB5" stroke="black" stroke-width="1.39887"/>
<rect x="411.967" y="194.052" width="32.5071" height="176.822" rx="15.8191" transform="rotate(88.7489 411.967 194.052)" fill="#00ADB5" stroke="black" stroke-width="1.39887"/>
<rect x="386.425" y="108.903" width="82.9969" height="15.5619" rx="2.00878" transform="rotate(105 386.425 108.903)" fill="#00ADB5" stroke="black" stroke-width="1.39887"/>
<rect x="285.245" y="180.956" width="82.9969" height="15.5619" rx="2.00878" fill="#EEEEEE" stroke="black" stroke-width="1.39887"/>
<path d="M129.189 9.28625C122.24 9.28625 117.921 8.92977 116.067 8.67921C115.834 8.64765 115.785 8.34807 115.992 8.23484L128.329 1.47133C128.557 1.34642 128.468 1.00006 128.208 1.00006H115.378" stroke="#EEEEEE" stroke-width="1.39887" stroke-linecap="round"/>
<path d="M107.092 16.0658C100.143 16.0658 95.8239 15.7093 93.9707 15.4588C93.7373 15.4272 93.6886 15.1276 93.8951 15.0144L106.232 8.25087C106.46 8.12596 106.371 7.7796 106.112 7.7796H93.2816" stroke="#EEEEEE" stroke-width="1.39887" stroke-linecap="round"/>
<path d="M130.695 47.4529C123.747 47.4529 119.427 47.0965 117.574 46.8459C117.34 46.8143 117.292 46.5148 117.498 46.4015L129.835 39.638C130.063 39.5131 129.975 39.1667 129.715 39.1667H116.885" stroke="#EEEEEE" stroke-width="1.39887" stroke-linecap="round"/>
</svg>
