<svg width="272" height="365" viewBox="0 0 272 365" fill="none" xmlns="http://www.w3.org/2000/svg">
<ellipse cx="95" cy="353" rx="95" ry="12" fill="black" fill-opacity="0.5"/>
<rect x="134.196" y="255.056" width="45.0309" height="92.9437" rx="3.51536" fill="#00ADB5" stroke="black" stroke-width="1.64486" stroke-linejoin="round"/>
<rect x="16.3948" y="281.895" width="45.0309" height="66.1053" rx="3.51536" fill="#EEEEEE" stroke="black" stroke-width="1.64486" stroke-linejoin="round"/>
<rect x="225.338" y="152.026" width="45.0309" height="195.974" rx="3.51536" fill="#00ADB5" stroke="black" stroke-width="1.64486" stroke-linejoin="round"/>
<path d="M76.1686 128.169L122.468 128.169C122.468 128.169 115.089 195.602 105.046 206.658C95.0037 217.713 42.4448 248.034 42.4448 248.034L24.7444 237.17L57.7417 185.203C57.7417 185.203 54.1129 164.938 76.1686 128.169Z" fill="#00ADB5" stroke="black" stroke-width="1.39887"/>
<path d="M43.1933 247.426L24.7444 237.173L15.4073 247.226C15.4073 247.226 31.1476 256.349 42.1292 259.925L37.4782 253.79L43.1933 247.426Z" fill="#EEEEEE" stroke="black" stroke-width="1.39887" stroke-linejoin="round"/>
<path d="M76.366 127.186L126.953 127.119C126.953 127.119 155.075 151.849 158.618 166.358C162.161 180.868 158.121 233.524 158.121 233.524L137.675 242.564L116.567 186.947C116.567 186.947 94.4977 166.041 76.366 127.186Z" fill="#00ADB5"/>
<path d="M76.366 127.186L76.365 126.487C76.1262 126.487 75.904 126.609 75.7758 126.811C75.6476 127.012 75.6311 127.265 75.7321 127.482L76.366 127.186ZM126.953 127.119L127.415 126.594L127.217 126.42L126.952 126.42L126.953 127.119ZM158.121 233.524L158.403 234.164L158.786 233.995L158.818 233.578L158.121 233.524ZM137.675 242.564L137.021 242.812L137.283 243.502L137.958 243.204L137.675 242.564ZM116.567 186.947L117.221 186.698L117.164 186.549L117.048 186.439L116.567 186.947ZM76.3669 127.885L126.954 127.819L126.952 126.42L76.365 126.487L76.3669 127.885ZM157.838 232.885L137.392 241.924L137.958 243.204L158.403 234.164L157.838 232.885ZM138.329 242.316L117.221 186.698L115.913 187.195L137.021 242.812L138.329 242.316ZM116.567 186.947C117.048 186.439 117.048 186.439 117.048 186.439C117.048 186.439 117.047 186.439 117.047 186.438C117.047 186.438 117.046 186.437 117.045 186.436C117.042 186.434 117.039 186.43 117.034 186.426C117.024 186.416 117.008 186.401 116.988 186.382C116.947 186.342 116.885 186.283 116.804 186.203C116.641 186.043 116.397 185.802 116.081 185.481C115.448 184.84 114.521 183.877 113.351 182.6C111.011 180.047 107.698 176.234 103.819 171.209C96.0615 161.16 86.0402 146.263 76.9998 126.89L75.7321 127.482C84.8234 146.964 94.9026 161.948 102.712 172.064C106.617 177.123 109.955 180.965 112.319 183.546C113.502 184.836 114.44 185.81 115.085 186.464C115.407 186.79 115.656 187.037 115.825 187.202C115.91 187.285 115.974 187.347 116.018 187.389C116.04 187.41 116.056 187.426 116.068 187.437C116.073 187.443 116.078 187.447 116.081 187.45C116.082 187.451 116.083 187.452 116.084 187.453C116.085 187.453 116.085 187.454 116.085 187.454C116.085 187.454 116.086 187.454 116.567 186.947ZM126.953 127.119C126.492 127.645 126.492 127.645 126.492 127.645C126.492 127.645 126.492 127.645 126.493 127.646C126.493 127.646 126.495 127.647 126.496 127.649C126.499 127.652 126.504 127.656 126.511 127.662C126.524 127.673 126.544 127.691 126.57 127.714C126.623 127.761 126.702 127.831 126.804 127.922C127.01 128.106 127.312 128.377 127.698 128.728C128.471 129.43 129.58 130.449 130.922 131.718C133.607 134.257 137.222 137.791 140.946 141.775C144.672 145.762 148.497 150.189 151.608 154.514C154.729 158.855 157.086 163.032 157.938 166.524L159.297 166.193C158.379 162.43 155.891 158.075 152.743 153.698C149.585 149.306 145.716 144.83 141.968 140.82C138.219 136.809 134.582 133.254 131.883 130.702C130.534 129.426 129.418 128.4 128.639 127.693C128.249 127.339 127.944 127.065 127.736 126.879C127.632 126.786 127.552 126.715 127.498 126.667C127.471 126.643 127.45 126.625 127.437 126.613C127.43 126.607 127.424 126.602 127.421 126.599C127.419 126.597 127.418 126.596 127.417 126.595C127.416 126.595 127.416 126.595 127.416 126.595C127.415 126.594 127.415 126.594 126.953 127.119ZM157.938 166.524C158.804 170.067 159.216 176.007 159.336 182.986C159.455 189.945 159.282 197.873 158.999 205.356C158.716 212.838 158.322 219.867 157.998 225.026C157.837 227.606 157.693 229.718 157.59 231.184C157.538 231.918 157.496 232.49 157.468 232.878C157.453 233.072 157.442 233.221 157.435 233.32C157.431 233.37 157.428 233.408 157.426 233.433C157.425 233.446 157.424 233.455 157.424 233.462C157.424 233.465 157.423 233.467 157.423 233.469C157.423 233.469 157.423 233.47 157.423 233.47C157.423 233.471 157.423 233.471 158.121 233.524C158.818 233.578 158.818 233.578 158.818 233.577C158.818 233.577 158.818 233.576 158.818 233.575C158.818 233.574 158.818 233.571 158.819 233.568C158.819 233.562 158.82 233.552 158.821 233.539C158.823 233.514 158.826 233.476 158.829 233.425C158.837 233.325 158.848 233.176 158.863 232.981C158.891 232.591 158.933 232.018 158.985 231.283C159.089 229.813 159.233 227.698 159.395 225.114C159.718 219.947 160.113 212.905 160.397 205.409C160.681 197.914 160.854 189.957 160.734 182.962C160.615 175.988 160.204 169.904 159.297 166.193L157.938 166.524Z" fill="black"/>
<path fill-rule="evenodd" clip-rule="evenodd" d="M120.736 44.6844C121.886 44.2646 122.982 43.6511 123.982 42.7992C131.53 36.3687 128.293 26.6669 123.725 21.616C119.158 16.565 91.2137 18.5798 104.396 41.9787C104.451 42.0122 104.508 42.0458 104.565 42.0797C106.039 46.7692 104.796 50.7916 103.305 55.6178C102.697 57.5862 102.047 59.6884 101.524 62.0241L115.505 61.0223C119.347 55.8044 120.804 50.5446 120.736 44.6844Z" fill="#F5B9AB"/>
<path d="M123.982 42.7992L124.515 43.4252L124.515 43.4252L123.982 42.7992ZM120.736 44.6844L120.454 43.9117C120.126 44.0314 119.909 44.345 119.913 44.694L120.736 44.6844ZM123.725 21.616L124.335 21.0643L123.725 21.616ZM104.396 41.9787L103.679 42.3824C103.749 42.5063 103.85 42.6099 103.971 42.6832L104.396 41.9787ZM104.565 42.0797L105.35 41.8331C105.289 41.6386 105.158 41.4738 104.982 41.3706L104.565 42.0797ZM103.305 55.6178L102.519 55.375L102.519 55.375L103.305 55.6178ZM101.524 62.0241L100.721 61.8443C100.664 62.098 100.731 62.3637 100.901 62.5608C101.07 62.7578 101.323 62.863 101.583 62.8444L101.524 62.0241ZM115.505 61.0223L115.563 61.8427C115.803 61.8255 116.024 61.7039 116.167 61.51L115.505 61.0223ZM123.449 42.1731C122.528 42.9577 121.518 43.5233 120.454 43.9117L121.017 45.457C122.254 45.0059 123.436 44.3445 124.515 43.4252L123.449 42.1731ZM123.115 22.1676C125.304 24.5873 127.166 28.1201 127.58 31.7827C127.99 35.4073 126.988 39.1575 123.449 42.1731L124.515 43.4252C128.524 40.0104 129.678 35.6944 129.214 31.5978C128.755 27.5392 126.715 23.6956 124.335 21.0643L123.115 22.1676ZM105.112 41.5751C101.872 35.8236 101.243 31.5316 102.011 28.412C102.774 25.3146 104.959 23.196 107.756 21.872C110.565 20.5425 113.934 20.0474 116.883 20.1977C118.353 20.2727 119.694 20.5071 120.788 20.8631C121.897 21.224 122.68 21.6866 123.115 22.1676L124.335 21.0643C123.629 20.2827 122.539 19.7033 121.297 19.299C120.04 18.8898 118.552 18.6358 116.966 18.555C113.802 18.3937 110.153 18.9176 107.053 20.3853C103.94 21.8584 101.326 24.3152 100.414 28.0187C99.5074 31.6999 100.328 36.4344 103.679 42.3824L105.112 41.5751ZM104.982 41.3706C104.927 41.3382 104.873 41.3061 104.82 41.2742L103.971 42.6832C104.03 42.7183 104.089 42.7534 104.149 42.7887L104.982 41.3706ZM104.091 55.8606C105.571 51.0688 106.912 46.8027 105.35 41.8331L103.781 42.3262C105.167 46.7357 104.021 50.5143 102.519 55.375L104.091 55.8606ZM102.326 62.2039C102.842 59.9045 103.482 57.8318 104.091 55.8606L102.519 55.375C101.912 57.3407 101.253 59.4723 100.721 61.8443L102.326 62.2039ZM115.446 60.202L101.465 61.2038L101.583 62.8444L115.563 61.8427L115.446 60.202ZM119.913 44.694C119.98 50.3886 118.571 55.4709 114.842 60.5347L116.167 61.51C120.123 56.1378 121.628 50.7005 121.558 44.6747L119.913 44.694Z" fill="black"/>
<path d="M101.888 27.8491C99.6998 30.8928 102.056 38.4102 103.795 40.2904C89.3887 32.297 98.509 14.2618 102.954 17.5506C103.678 10.8828 111.329 8.53019 116.545 14.1694C129.622 3.60926 130.31 21.6035 125.694 24.34C121.079 27.0765 115.479 24.4705 112.573 25.8816C109.667 27.2927 107.873 35.8405 106.932 31.0963C105.99 26.3522 104.622 24.0444 101.888 27.8491Z" fill="#00ADB5" stroke="black" stroke-width="1.64486"/>
<path d="M128.642 128.265C143.721 118.236 137.428 83.5813 135.283 73.7283C134.897 71.9556 134.325 70.255 133.632 68.5786C127.932 54.8001 113.871 43.7023 100.403 50.1027C71.7177 63.7358 75.9823 107.223 76.2531 128.591L128.642 128.265Z" fill="#EEEEEE" stroke="black" stroke-width="1.64486" stroke-linejoin="round"/>
<path d="M173.997 81.3722L161.895 66.603L121.116 95.1333L107.936 68.6039L90.8699 95.1331C90.8699 95.1331 109.358 123.848 118.75 123.014C135.866 121.493 173.997 81.3722 173.997 81.3722Z" fill="#EEEEEE"/>
<path d="M108.839 70.5397L121.001 94.3189L161.894 66.6035L173.997 81.3727C173.997 81.3727 138.051 121.245 117.045 123.111C110.434 123.699 91.1728 94.8459 91.1728 94.8459" stroke="black" stroke-width="1.64486"/>
<path d="M165.918 63.938L161.125 67.0145L173.158 82.2598L176.942 79.1937C180.969 75.9317 181.607 70.0309 178.37 65.9837C175.356 62.2139 169.981 61.3308 165.918 63.938Z" fill="#F5B9AB" stroke="black" stroke-width="1.64486" stroke-linejoin="round"/>
<path d="M158.369 231.606L137.675 242.395L141.235 255.877L168.866 238.861L160.736 239.965L158.369 231.606Z" fill="#EEEEEE" stroke="black" stroke-width="1.39887" stroke-linejoin="round"/>
</svg>
