<svg width="1440" height="1024" viewBox="0 0 1440 1024" fill="none" xmlns="http://www.w3.org/2000/svg">
<rect width="1440" height="1024" fill="#222831"/>
<path d="M996.686 709.091C995.377 709.284 993.837 709.386 993.525 710.945C993.284 712.153 993.375 713.396 994.099 714.444C995.336 716.234 997.174 717.279 999.388 716.91C1001.37 716.581 1004.09 714.787 1004.09 712.559C1004.09 711.303 1003.18 710.039 1002.43 709.099C1001.63 708.092 1000.94 707.032 999.928 706.208C998.566 705.097 997.465 704.988 996.24 706.298C995.57 707.015 994.936 707.993 994.643 708.932C994.498 709.395 994.605 709.766 994.605 710.23C994.605 710.848 994.49 709.936 994.605 709.63" stroke="#00ADB5" stroke-opacity="0.5" stroke-linecap="round" stroke-linejoin="round"/>
<path d="M1003.47 712.63C1004.58 713.619 1005.53 714.513 1007.5 714.561C1008.88 714.595 1010.25 714.251 1011.55 713.88C1012.47 713.615 1015.44 712.21 1013.03 712.097" stroke="#00ADB5" stroke-opacity="0.5" stroke-linecap="round" stroke-linejoin="round"/>
<path d="M1014.96 704.003C1013.49 705.626 1011.46 708.807 1012.22 711.245C1012.49 712.102 1012.88 712.679 1013.38 713.412C1014.39 714.886 1015.96 714.426 1017.39 714.041C1018.42 713.762 1019.65 712.883 1020.04 711.883C1020.59 710.503 1019.45 708.345 1018.5 707.395C1017.44 706.334 1016.6 705.043 1015.42 704.114C1015.1 703.867 1014.86 703.599 1014.45 703.69C1013.99 703.793 1013.8 704.234 1014.42 704.234" stroke="#00ADB5" stroke-opacity="0.5" stroke-linecap="round" stroke-linejoin="round"/>
<path d="M1118.87 481.582C1117.56 481.776 1116.02 481.878 1115.71 483.437C1115.46 484.645 1115.56 485.888 1116.28 486.936C1117.52 488.726 1119.35 489.771 1121.57 489.402C1123.55 489.072 1126.27 487.279 1126.27 485.051C1126.27 483.795 1125.36 482.531 1124.61 481.591C1123.81 480.583 1123.12 479.524 1122.11 478.7C1120.75 477.589 1119.65 477.48 1118.42 478.79C1117.75 479.507 1117.12 480.485 1116.82 481.424C1116.68 481.887 1116.78 482.258 1116.78 482.722C1116.78 483.34 1116.67 482.428 1116.78 482.122" stroke="#00ADB5" stroke-opacity="0.5" stroke-linecap="round" stroke-linejoin="round"/>
<path d="M1125.65 485.122C1126.76 486.111 1127.71 487.005 1129.68 487.053C1131.06 487.087 1132.43 486.743 1133.73 486.372C1134.65 486.107 1137.62 484.702 1135.21 484.589" stroke="#00ADB5" stroke-opacity="0.5" stroke-linecap="round" stroke-linejoin="round"/>
<path d="M1137.14 476.495C1135.67 478.118 1133.64 481.299 1134.4 483.737C1134.67 484.594 1135.06 485.171 1135.56 485.903C1136.57 487.377 1138.14 486.918 1139.57 486.533C1140.6 486.254 1141.83 485.375 1142.22 484.375C1142.77 482.994 1141.63 480.837 1140.68 479.887C1139.62 478.826 1138.78 477.535 1137.6 476.606C1137.28 476.359 1137.04 476.091 1136.63 476.182C1136.17 476.285 1135.98 476.726 1136.6 476.726" stroke="#00ADB5" stroke-opacity="0.5" stroke-linecap="round" stroke-linejoin="round"/>
<path d="M1006.12 434.395C1013.67 430.8 1019.77 424.855 1025.91 419.249C1030.73 414.843 1035.78 410.49 1041.1 406.688C1042.15 405.937 1043.64 404.428 1045.06 405.071C1046.46 405.709 1047.27 407.445 1048.39 408.473C1051.12 411.005 1053.58 414.099 1055.84 417.074C1058.31 420.349 1054.6 422.162 1052.3 424.306C1049.69 426.742 1047.2 429.254 1044.35 431.403C1041.64 433.446 1039.47 436.262 1036.99 438.575C1033.21 442.1 1029.67 445.853 1025.9 449.381C1023.66 451.481 1021.09 453.196 1018.93 455.371C1018.17 456.133 1017.47 457.141 1016.6 457.775C1015.9 458.285 1014.93 456.325 1014.68 455.956C1012.69 453.026 1009.63 451.021 1007.69 447.957C1006.47 446.03 1005.65 443.652 1004.19 441.892C1003.49 441.052 1001.75 439.161 1002.51 437.934C1003.29 436.681 1005.5 436.081 1006.71 435.184C1007.65 434.484 1008.79 433.621 1009.87 433.134C1010.64 432.781 1011.41 432.154 1012.1 431.672C1013.94 430.402 1012 430.945 1010.76 431.417" stroke="#00ADB5" stroke-opacity="0.5" stroke-linecap="round" stroke-linejoin="round"/>
<path d="M1007.28 440.148C1011.87 442.992 1015.99 447.108 1019.58 451.167C1019.67 451.27 1020.54 451.878 1020.41 452.103C1020.15 452.538 1017.17 450.575 1016.89 450.379" stroke="#00ADB5" stroke-opacity="0.5" stroke-linecap="round" stroke-linejoin="round"/>
<path d="M1011.83 436.036C1015.56 437.102 1017.78 439.132 1020.78 441.303C1022.12 442.27 1023.49 443.143 1024.69 444.281C1025.25 444.815 1025.66 445.518 1026.18 446.094C1026.89 446.883 1023.97 445.178 1023.63 444.981" stroke="#00ADB5" stroke-opacity="0.5" stroke-linecap="round" stroke-linejoin="round"/>
<path d="M1017.24 432.848C1019.85 435.201 1022.47 437.521 1025.16 439.778C1026.18 440.636 1027.34 441.423 1028.22 442.434C1029.79 444.227 1027.74 441.9 1027.04 441.243" stroke="#00ADB5" stroke-opacity="0.5" stroke-linecap="round" stroke-linejoin="round"/>
<path d="M1020.9 430.606C1022.83 431.781 1024.85 432.92 1026.49 434.505C1027.16 435.156 1027.71 435.922 1028.43 436.524C1029.32 437.266 1030.09 438.132 1030.98 438.853C1032.25 439.88 1032.44 440.18 1030.93 438.891" stroke="#00ADB5" stroke-opacity="0.5" stroke-linecap="round" stroke-linejoin="round"/>
<path d="M1025.6 427.154C1027.74 428.824 1029.71 430.519 1031.5 432.555C1032.29 433.457 1032.92 434.498 1033.92 435.19C1034.84 435.824 1035.49 436.007 1034.41 434.977" stroke="#00ADB5" stroke-opacity="0.5" stroke-linecap="round" stroke-linejoin="round"/>
<path d="M1030.14 423.637C1032.01 425.048 1033.87 426.336 1035.37 428.154C1036.05 428.986 1036.6 429.942 1037.36 430.709C1038.92 432.268 1037.85 431.482 1036.72 430.424" stroke="#00ADB5" stroke-opacity="0.5" stroke-linecap="round" stroke-linejoin="round"/>
<path d="M1034.32 419.987C1036.95 422.509 1039.16 425.463 1041.8 427.954C1043.58 429.632 1041.03 426.944 1040.62 426.466" stroke="#00ADB5" stroke-opacity="0.5" stroke-linecap="round" stroke-linejoin="round"/>
<path d="M1039.42 417.085C1041.64 416.179 1043.94 415.099 1045.14 412.884C1045.46 412.274 1045.89 411.742 1046.02 411.054C1046.21 410.109 1046.17 410.515 1045.47 411.126" stroke="#00ADB5" stroke-opacity="0.5" stroke-linecap="round" stroke-linejoin="round"/>
<path d="M1042.99 420.133C1044.75 418.5 1046.72 416.716 1048.01 414.644C1048.65 413.61 1049.88 412.348 1048.17 413.843" stroke="#00ADB5" stroke-opacity="0.5" stroke-linecap="round" stroke-linejoin="round"/>
<path d="M1048.64 423.555C1050.24 421.813 1051.66 420.192 1053.14 418.371C1053.62 417.782 1055.07 417.018 1053.32 417.485" stroke="#00ADB5" stroke-opacity="0.5" stroke-linecap="round" stroke-linejoin="round"/>
<path d="M1047.36 422.674C1049.04 421.236 1050.94 419.562 1052.27 417.747C1052.62 417.262 1052.89 416.723 1053.22 416.219C1053.76 415.376 1053.8 415.661 1052.97 415.748" stroke="#00ADB5" stroke-opacity="0.5" stroke-linecap="round" stroke-linejoin="round"/>
<path d="M1011.81 443.053C1020.17 439.657 1022.23 430.44 1029.04 425.228C1029.87 424.594 1030.55 423.889 1031.51 423.45C1032.16 423.157 1032.96 423.016 1033.54 422.641C1033.9 422.411 1036.88 420.135 1034.81 421.076" stroke="#00ADB5" stroke-opacity="0.5" stroke-linecap="round" stroke-linejoin="round"/>
<path d="M1007.92 440.588C1008.85 439.447 1009.69 438.471 1010.88 437.646C1011.07 437.51 1011.37 437.488 1011.53 437.307C1011.85 436.949 1012.33 436.425 1012.46 435.964C1012.94 434.145 1015.3 434.481 1016.55 433.569C1017.74 432.702 1018.89 431.823 1020.1 430.966C1021.44 430.022 1022.06 429.194 1023.14 427.984C1024.12 426.872 1025.08 425.748 1026.13 424.696C1026.98 423.835 1028.32 423.052 1028.87 421.95C1029.48 420.707 1031.05 419.284 1032.46 419.514C1032.95 419.594 1036.52 421.66 1034.19 420.339" stroke="#00ADB5" stroke-opacity="0.5" stroke-linecap="round" stroke-linejoin="round"/>
<path d="M1015.48 445.033C1021.76 441.72 1025.25 434.495 1029.49 429.037C1031.05 427.027 1033.29 425.691 1034.92 423.716C1035.62 422.871 1037.17 421.974 1035.37 421.989" stroke="#00ADB5" stroke-opacity="0.5" stroke-linecap="round" stroke-linejoin="round"/>
<path d="M1017.72 447.08C1023.42 443.58 1027.06 437.069 1031.2 431.91C1033.09 429.562 1034.9 427.166 1036.81 424.837C1037.68 423.776 1039.2 423.113 1037.25 424.2" stroke="#00ADB5" stroke-opacity="0.5" stroke-linecap="round" stroke-linejoin="round"/>
<path d="M1019.97 450.732C1023.52 447.268 1026.39 443.53 1029.29 439.523C1031.06 437.087 1032.59 434.348 1034.66 432.155C1035.85 430.896 1036.77 429.422 1037.85 428.088C1038.29 427.55 1038.59 426.924 1039.03 426.391C1040.04 425.19 1039.34 426.276 1038.64 426.928" stroke="#00ADB5" stroke-opacity="0.5" stroke-linecap="round" stroke-linejoin="round"/>
<path d="M1020.8 452.25C1022.57 450.518 1025.16 448.852 1026.34 446.605C1026.77 445.79 1027.83 443.821 1028.57 443.322C1029.55 442.662 1030.02 441.259 1030.73 440.377C1031.48 439.458 1032.21 438.561 1033.01 437.687C1033.77 436.867 1034.01 435.428 1034.95 434.723C1036 433.937 1036.51 432.72 1037.34 431.782C1038.06 430.97 1039.43 430.129 1040.33 429.508C1040.82 429.165 1041.17 428.696 1041.73 428.441C1042.87 427.923 1042.13 428.188 1041.09 428.149" stroke="#00ADB5" stroke-opacity="0.5" stroke-linecap="round" stroke-linejoin="round"/>
<path d="M1039.28 417.734C1040.74 418.119 1042.54 418.384 1043.88 419.181C1044.74 419.695 1045.48 420.211 1043.92 419.275" stroke="#00ADB5" stroke-opacity="0.5" stroke-linecap="round" stroke-linejoin="round"/>
<path d="M1040.8 415.293C1042.88 415.838 1044.36 416.449 1046.06 417.558C1047.17 418.283 1046.99 418.082 1045.83 417.384" stroke="#00ADB5" stroke-opacity="0.5" stroke-linecap="round" stroke-linejoin="round"/>
<path d="M1043.33 412.83C1045.12 413.837 1046.86 414.982 1048.71 415.859C1049.8 416.375 1049.23 416.339 1048.38 415.933" stroke="#00ADB5" stroke-opacity="0.5" stroke-linecap="round" stroke-linejoin="round"/>
<path d="M1044.77 410.862C1046.65 411.719 1048.39 412.573 1050.12 413.652C1050.91 414.144 1050.19 414.176 1049.6 413.778" stroke="#00ADB5" stroke-opacity="0.5" stroke-linecap="round" stroke-linejoin="round"/>
<path d="M1040.2 416.876C1041.62 415.184 1043.05 413.581 1044.35 411.847C1044.72 411.355 1046.96 408.612 1045.99 410.015" stroke="#00ADB5" stroke-opacity="0.5" stroke-linecap="round" stroke-linejoin="round"/>
<path d="M1041.7 419.846C1043.55 418.209 1046.22 416.027 1046.81 413.581C1046.99 412.862 1047.37 412.143 1047.93 411.647C1048.5 411.145 1049.09 410.919 1048.24 411.765" stroke="#00ADB5" stroke-opacity="0.5" stroke-linecap="round" stroke-linejoin="round"/>
<path d="M1040.21 419.791C1042.19 417.664 1043.87 416.235 1044.99 413.616C1045.28 412.935 1045.61 412.372 1046.09 411.836C1046.59 411.269 1047.31 410.738 1046.34 411.753" stroke="#00ADB5" stroke-opacity="0.5" stroke-linecap="round" stroke-linejoin="round"/>
<path d="M1047.55 420.838C1048.46 421.414 1049.37 421.948 1050.31 422.428C1050.7 422.626 1050.22 422.243 1050.05 422.18" stroke="#00ADB5" stroke-opacity="0.5" stroke-linecap="round" stroke-linejoin="round"/>
<path d="M1049.32 417.99C1049.38 418.042 1052.95 421.105 1052.32 420.422" stroke="#00ADB5" stroke-opacity="0.5" stroke-linecap="round" stroke-linejoin="round"/>
<path d="M1051.44 416.88C1052.23 417.638 1054.64 419.857 1053.79 419.168" stroke="#00ADB5" stroke-opacity="0.5" stroke-linecap="round" stroke-linejoin="round"/>
<path d="M1046.49 422.047C1047.8 420.831 1050.66 418.42 1051.36 416.55C1051.64 415.813 1052.91 414.866 1051.72 415.879" stroke="#00ADB5" stroke-opacity="0.5" stroke-linecap="round" stroke-linejoin="round"/>
<path d="M1046.66 422.41C1046.78 422.51 1049.28 425.201 1049.81 423.896C1050.08 423.23 1050.44 422.362 1051.11 421.995C1052.28 421.351 1052.49 419.322 1053.69 418.778C1055.05 418.16 1054.92 417.125 1053.66 416.758C1053.16 416.613 1053.55 415.633 1053.04 415.71C1052.56 415.781 1052.31 415.606 1051.78 415.703" stroke="#00ADB5" stroke-opacity="0.5" stroke-linecap="round" stroke-linejoin="round"/>
<path d="M1039.11 417.371C1039.97 419.009 1040.13 419.602 1041.52 420.285C1041.89 420.47 1042.38 420.214 1042.66 420.358C1043.22 420.642 1044.33 420.648 1044.75 420.132C1045.59 419.093 1045.9 418.423 1047.19 417.791C1048 417.393 1048.65 416.452 1049.03 415.673C1049.44 414.816 1050.19 414.171 1050.62 413.311C1050.81 412.945 1049.31 412.002 1049.3 411.368C1049.29 411.188 1047.51 411.183 1047.21 411.033C1046.85 410.85 1046.69 410.593 1046.52 410.214C1046.27 409.659 1045.82 410.348 1045.14 410.4" stroke="#00ADB5" stroke-opacity="0.5" stroke-linecap="round" stroke-linejoin="round"/>
<path d="M1009.43 438.147C1011.46 438.916 1013.22 439.908 1015.05 441.006C1016.63 441.96 1018.42 442.467 1019.99 443.391C1021.11 444.049 1022.27 445.551 1023.1 446.537C1023.37 446.866 1023.58 447.173 1023.77 447.544C1024.22 448.394 1023.75 446.339 1023.71 446.114" stroke="#00ADB5" stroke-opacity="0.5" stroke-linecap="round" stroke-linejoin="round"/>
<path d="M1028.98 422.701C1029.54 423.291 1031.82 426.545 1031.37 424.099" stroke="#00ADB5" stroke-opacity="0.5" stroke-linecap="round" stroke-linejoin="round"/>
<path d="M1033.66 648.572C1033.9 649.811 1034.51 650.616 1034.99 651.744C1035.31 652.511 1035.92 653.106 1036.25 653.859C1036.62 654.672 1037.16 655.628 1037.67 656.352C1038.1 656.972 1038.39 657.56 1038.93 658.109C1039.9 659.077 1040.64 660.232 1041.61 661.187C1043.02 662.575 1045.42 664.386 1047.48 664.272C1048.14 664.235 1048.88 664.44 1049.53 664.342C1050.08 664.258 1050.76 664.23 1051.32 664.326C1052.24 664.485 1053.23 664.325 1054.11 664.515C1054.58 664.618 1055.1 664.468 1055.58 664.557C1056.2 664.672 1056.93 664.701 1057.56 664.701C1059.64 664.701 1061.71 664.688 1063.77 664.426C1064.89 664.283 1066.01 664.655 1067.11 664.458C1068.16 664.272 1069.54 664.464 1070.52 664.035C1071.73 663.508 1072.92 662.68 1073.85 661.75C1074.32 661.284 1074.67 660.727 1074.99 660.15C1075.4 659.393 1075.64 658.576 1076.05 657.821C1077.51 655.186 1078.33 652.253 1079.51 649.507C1079.79 648.859 1080.25 648.335 1080.58 647.737C1080.66 647.586 1080.7 647.393 1080.84 647.247C1081.35 646.704 1080.37 646.646 1079.92 646.441" stroke="#00ADB5" stroke-opacity="0.5" stroke-linecap="round" stroke-linejoin="round"/>
<path d="M1033.43 648.687C1034.46 647.341 1035.33 646.351 1036.83 645.59C1038.08 644.952 1039.38 644.195 1040.51 643.362C1042.25 642.084 1044.64 641.514 1046.76 641.129C1049.07 640.71 1051.33 640.22 1053.68 640.22C1054.41 640.22 1055.12 640.438 1055.85 640.45C1056.72 640.465 1057.59 640.492 1058.46 640.566C1059.78 640.679 1061.14 640.652 1062.47 640.681C1064.33 640.721 1066.1 641.681 1067.96 641.83C1069.06 641.918 1070.35 642.083 1071.42 642.383C1071.82 642.496 1072.28 642.572 1072.66 642.754C1073.12 642.981 1073.45 643.365 1073.88 643.631C1075.26 644.492 1076.81 644.897 1078.31 645.551C1078.76 645.752 1079.55 646.095 1080.06 646.095C1080.76 646.095 1080.72 647.385 1080.72 646.095" stroke="#00ADB5" stroke-opacity="0.5" stroke-linecap="round" stroke-linejoin="round"/>
<path d="M1080.61 646.902C1079.75 648.047 1079.14 648.483 1077.93 649.151C1076.98 649.676 1075.93 650.048 1074.86 650.243C1073.86 650.425 1072.78 650.568 1071.77 650.649C1070.93 650.716 1070.07 650.619 1069.21 650.716C1067.27 650.937 1065.32 651.437 1063.45 651.984C1060.78 652.764 1058.2 652.845 1055.44 652.995C1052.43 653.158 1049.41 652.928 1046.46 652.316C1045.47 652.11 1044.41 652.295 1043.4 652.256C1042.29 652.212 1041.19 651.905 1040.14 651.542C1039.7 651.389 1039.3 651.155 1038.83 651.049C1038.29 650.926 1037.74 650.974 1037.2 650.844C1036.45 650.663 1035.57 650.336 1034.94 649.897C1034.67 649.706 1034.25 649.549 1034.03 649.26C1033.97 649.176 1033.89 648.989 1033.89 648.889C1033.89 648.651 1033.7 648.711 1034.01 648.918" stroke="#00ADB5" stroke-opacity="0.5" stroke-linecap="round" stroke-linejoin="round"/>
<path d="M1055.84 658.595C1056.54 658.517 1057.47 658.53 1057.18 657.629C1057.08 657.339 1056.85 657.308 1056.6 657.225C1055.86 656.978 1054.53 657.457 1054.25 658.23C1053.75 659.618 1054.7 661.118 1056.19 660.637C1056.59 660.506 1057.31 660.22 1057.57 659.853C1057.87 659.412 1057.41 659.542 1057.1 659.113" stroke="#00ADB5" stroke-opacity="0.5" stroke-linecap="round" stroke-linejoin="round"/>
<path d="M1053.71 657.097C1054.82 656.649 1055.4 656.464 1056.53 656.464C1056.98 656.464 1057.21 656.432 1057.61 656.694C1058.27 657.128 1058.5 657.952 1058.43 658.678C1058.37 659.291 1058.17 660.131 1057.96 660.713C1057.8 661.146 1057.4 661.221 1056.99 661.302C1056.62 661.376 1055.81 661.169 1055.52 661.331C1055.21 661.503 1054.26 661.561 1054.02 661.241C1053.8 660.947 1053.57 660.821 1053.41 660.464C1053.25 660.123 1053.18 659.798 1053.06 659.459C1052.89 658.994 1052.59 657.723 1053.22 657.443C1053.59 657.279 1053.74 657.181 1054.17 657.181C1054.29 657.181 1054.39 657.27 1054.51 657.27C1054.69 657.27 1054.17 657.155 1053.99 657.155" stroke="#00ADB5" stroke-opacity="0.5" stroke-linecap="round" stroke-linejoin="round"/>
<path d="M1055.72 652.489C1056.53 651.439 1057.28 650.355 1058.12 649.334C1058.57 648.785 1059.13 648.313 1059.61 647.788C1061.01 646.285 1062.42 644.639 1063.49 642.882C1064.53 641.152 1065.96 639.267 1067.51 637.967C1068.33 637.28 1069.06 636.522 1069.77 635.73C1070.46 634.962 1070.78 633.889 1071.43 633.077C1071.94 632.449 1075.26 628.174 1075.84 630.773C1076.07 631.795 1075.07 632.509 1074.44 633.135C1073.73 633.845 1073.02 634.747 1072.41 635.554C1071.83 636.332 1071.12 637.016 1070.55 637.801C1069.78 638.868 1068.38 639.632 1067.82 640.841C1067.35 641.838 1066.59 642.64 1066.01 643.564C1065.21 644.845 1064.27 645.915 1063.33 647.087C1062.58 648.016 1061.41 648.78 1060.88 649.839C1060.44 650.724 1059.65 651.097 1058.94 651.67C1058.62 651.919 1058.24 652.058 1057.97 652.403C1057.88 652.518 1057.71 652.65 1057.63 652.521C1057.58 652.448 1057.39 652.613 1057.42 652.694C1057.55 652.981 1057.25 652.005 1057.22 651.913" stroke="#00ADB5" stroke-opacity="0.5" stroke-linecap="round" stroke-linejoin="round"/>
<path d="M1055.26 652.777C1055.48 652.889 1056.87 653.946 1056.87 653.094C1056.87 652.836 1057.21 652.406 1057.32 652.144C1057.41 651.945 1056.62 652.135 1056.5 652.288C1056.34 652.486 1056.04 652.648 1056.53 652.662C1056.9 652.673 1057.19 652.512 1057.48 652.291C1057.56 652.227 1058.66 652.401 1057.68 652.374C1057.16 652.359 1056.65 652.374 1056.15 652.374C1055.72 652.374 1056.6 652.259 1056.72 652.259C1056.82 652.259 1055.99 652.753 1055.85 652.592C1055.82 652.552 1055.75 652.444 1055.9 652.374" stroke="#00ADB5" stroke-opacity="0.5" stroke-linecap="round" stroke-linejoin="round"/>
<path d="M1036.94 648.515C1037.01 648.549 1039.07 649.627 1039.08 649.494C1039.08 649.333 1038.97 649.192 1039.05 649.033C1039.4 648.336 1039.85 648.671 1040.45 648.94C1040.92 649.151 1040.21 646.82 1041.62 647.804C1042.34 648.313 1042.54 648.232 1042.42 647.379C1042.33 646.733 1042.55 646.731 1043.11 646.799C1043.49 646.846 1043.76 646.928 1043.97 646.569C1044.23 646.133 1044.53 645.885 1045.06 646.073C1045.51 646.229 1045.9 646.668 1046.21 646.108C1046.34 645.862 1046.23 645.125 1046.65 645.267C1046.92 645.355 1047.27 645.702 1047.57 645.593C1047.8 645.51 1047.97 644.799 1048.23 644.911C1048.51 645.029 1048.78 645.543 1049.12 645.42C1049.29 645.361 1049.6 644.821 1049.27 644.886" stroke="#00ADB5" stroke-opacity="0.5" stroke-linecap="round" stroke-linejoin="round"/>
<path d="M1045.07 647.478C1045.78 648.059 1048.45 651.162 1049.24 648.844C1049.38 648.429 1049.4 647.607 1049.8 648.287C1050.12 648.848 1050.61 649.237 1051.14 648.707C1051.49 648.355 1051.65 647.758 1052.15 647.574C1052.61 647.405 1052.95 648.273 1053.34 647.766C1053.64 647.357 1053.49 646.654 1053.04 646.409C1052.89 646.328 1052.85 646.606 1052.78 646.671" stroke="#00ADB5" stroke-opacity="0.5" stroke-linecap="round" stroke-linejoin="round"/>
<path d="M1051.23 643.907C1052.34 643.715 1053.74 643.326 1054.59 644.323C1054.98 644.784 1054.94 645.374 1054.69 645.897C1054.5 646.279 1053.99 646.47 1053.66 646.095C1053.39 645.788 1053.94 645.281 1054.14 645.094C1054.82 644.451 1055.82 645.48 1056.03 646.179C1056.2 646.762 1054.61 648.114 1054.8 647.535" stroke="#00ADB5" stroke-opacity="0.5" stroke-linecap="round" stroke-linejoin="round"/>
<path d="M1069.95 645.865C1070.28 645.751 1072.41 645.067 1072 646.198C1071.79 646.778 1070.99 647.089 1070.46 647.279C1070.21 647.369 1069.57 647.354 1069.99 646.991C1070.35 646.678 1070.86 646.53 1071.33 646.569C1073.18 646.719 1070.6 648.843 1070.06 649.136C1069.03 649.704 1067.63 650.303 1066.55 649.609" stroke="#00ADB5" stroke-opacity="0.5" stroke-linecap="round" stroke-linejoin="round"/>
<path d="M1058.6 642.466C1059.04 643.18 1059.57 643.896 1059.94 644.646C1060.07 644.904 1059.51 644.243 1059.38 643.987C1059.35 643.919 1059.11 643.162 1059.09 643.167C1058.8 643.23 1058.74 644.514 1058.66 644.751C1058.3 645.873 1057.42 645.443 1056.55 645.359C1055.49 645.258 1055.02 646.296 1054.44 646.959C1053.98 647.49 1053.79 647.653 1054.11 648.284C1054.36 648.795 1054.47 649.291 1054.11 649.753C1053.83 650.114 1053.47 650.342 1053.13 650.64C1052.82 650.912 1053.27 650.867 1053.21 650.704C1053.05 650.256 1052.06 650.349 1051.74 650.371C1050.54 650.45 1049.32 650.149 1048.14 650.224C1047.52 650.263 1046.93 650.612 1046.31 650.704C1045.68 650.797 1046.51 651.343 1046.75 651.5C1047.15 651.771 1045.95 650.925 1045.51 650.716C1044.77 650.366 1044.09 650.096 1043.71 649.321C1043.33 648.545 1042.99 648.016 1042.34 647.446C1042.12 647.249 1042.09 646.951 1042.2 646.684C1042.45 646.067 1043.01 645.565 1043.57 645.231" stroke="#00ADB5" stroke-opacity="0.5" stroke-linecap="round" stroke-linejoin="round"/>
<path d="M1058.49 644.771C1057.04 643.763 1055.85 643.329 1054.15 643.1C1053.56 643.02 1052.92 642.607 1052.53 642.15C1052.19 641.744 1052.38 641.852 1051.97 642.402C1051.42 643.155 1051.01 642.48 1050.29 642.678C1049.21 642.981 1048.27 643.994 1047.17 644.182C1046.86 644.233 1046.94 643.727 1046.56 643.945C1045.92 644.312 1045.43 644.66 1044.69 644.777C1044.24 644.848 1043.38 645.144 1043.45 645.692" stroke="#00ADB5" stroke-opacity="0.5" stroke-linecap="round" stroke-linejoin="round"/>
<path d="M1068.28 644.771C1069.67 644.905 1071.08 644.888 1072.47 645.036C1072.96 645.088 1073.21 645.286 1073.55 645.606C1073.86 645.894 1074.35 646.574 1074.79 646.611C1075.43 646.664 1075.76 646.398 1076.36 646.211C1076.72 646.098 1077.87 646.211 1077.5 646.211" stroke="#00ADB5" stroke-opacity="0.5" stroke-linecap="round" stroke-linejoin="round"/>
<path d="M1067.24 646.326C1065.75 647.313 1064.95 648.81 1063.34 649.708C1063.02 649.886 1062.05 650.231 1062.13 650.816C1062.18 651.239 1065.42 649.914 1065.92 649.667" stroke="#00ADB5" stroke-opacity="0.5" stroke-linecap="round" stroke-linejoin="round"/>
<path d="M1072.83 647.708C1073.64 648.314 1074.35 649.181 1075.36 648.873C1075.64 648.79 1076.22 648.757 1076.4 648.572" stroke="#00ADB5" stroke-opacity="0.5" stroke-linecap="round" stroke-linejoin="round"/>
<path d="M1274.13 622.597C1269.93 623.404 1266.87 624.619 1264.2 628.047C1262.51 630.219 1262.88 633.638 1263.99 635.941C1265.81 639.736 1270.3 641.879 1274.34 642.065C1279.06 642.281 1285.61 640.896 1286.58 635.275C1287.09 632.262 1284.21 629.413 1282.87 626.942C1281.77 624.931 1280.12 622.221 1277.81 621.371C1276.87 621.024 1274.68 621.144 1274 622.082C1273.69 622.501 1273.29 622.944 1273.07 623.414C1272.89 623.796 1273.09 622.444 1273.04 622.052" stroke="#00ADB5" stroke-opacity="0.5" stroke-linecap="round" stroke-linejoin="round"/>
<path d="M1275.9 632.951C1274.77 633.535 1272.93 633.921 1273.92 635.199C1274.15 635.491 1274.47 635.475 1274.74 635.199C1274.98 634.964 1276.17 633.728 1275.29 633.436C1273.5 632.84 1274.16 636.407 1275.43 634.829C1276.12 633.981 1275.16 633.146 1274.3 633.663C1273.27 634.278 1274.08 635.353 1274.89 634.42C1275.49 633.716 1275.01 633.177 1274.35 633.837C1273.76 634.428 1274.36 635.37 1274.94 634.571C1275.54 633.752 1274.86 633.058 1274.14 633.776C1273.31 634.608 1274.21 634.521 1274.8 633.973C1275.39 633.421 1274.34 633.502 1274 633.935C1273.2 634.941 1274.45 634.798 1274.65 633.935C1274.94 632.668 1273.63 635.58 1274.27 633.36" stroke="#00ADB5" stroke-opacity="0.5" stroke-linecap="round" stroke-linejoin="round"/>
<path d="M1271.27 628.728C1272.48 630.325 1273.72 631.839 1274.74 633.436C1275.02 633.878 1274.79 634.322 1274.95 634.314C1275.52 634.282 1276.11 634.178 1276.72 634.178C1278.12 634.178 1279.22 633.496 1280.57 633.496C1282.2 633.496 1284.59 633.073 1281.9 631.725" stroke="#00ADB5" stroke-opacity="0.5" stroke-linecap="round" stroke-linejoin="round"/>
<path d="M1269.91 622.461C1269.65 621.173 1268.41 618.05 1270.73 618.381C1271.56 618.5 1272.11 619.359 1272.6 619.902C1273.87 621.315 1273.74 623.021 1271.68 623.142C1271.14 623.174 1270.38 624.243 1269.77 623.483C1269.08 622.621 1269.79 622.679 1269.91 621.643C1269.99 620.966 1269.55 621.022 1269.36 620.356C1269.21 619.846 1269.51 619.287 1269.64 618.918" stroke="#00ADB5" stroke-opacity="0.5" stroke-linecap="round" stroke-linejoin="round"/>
<path d="M1270.73 620.962C1270.71 621.287 1270.21 624.22 1271.28 623.74C1271.64 623.579 1271.94 623.346 1272.09 622.975C1272.23 622.617 1272.08 622.402 1271.92 622.052C1271.52 621.149 1270.34 619.745 1270.7 621.779C1270.92 623.063 1272.36 622.763 1272.47 621.537C1272.55 620.601 1271.37 619.347 1270.62 620.417C1270.09 621.174 1271.03 622.842 1271.59 621.673C1271.87 621.08 1271.2 619.571 1270.48 620.311C1269.75 621.069 1270.85 622.669 1271.57 622.022C1272.29 621.382 1271.8 619.43 1271.03 620.175C1270.32 620.856 1271.38 622.212 1271.92 621.174C1272.52 620.016 1271.2 619.143 1270.79 620.356C1270.42 621.44 1271.57 622.604 1271.83 621.128C1272.03 620.005 1269.97 619.408 1269.97 620.75C1269.97 621.987 1271.07 621.86 1271.07 620.735C1271.07 619.562 1269.89 619.826 1270.38 620.811C1270.88 621.795 1271.54 620.048 1270.98 619.494C1270.34 618.847 1269.48 619.847 1270.24 620.47C1270.76 620.895 1271.47 619.132 1270.6 618.805C1269.84 618.522 1270.26 620.062 1270.52 619.713C1270.93 619.173 1270.31 618.811 1270.73 618.918C1271.11 619.013 1272.03 619.214 1272.28 619.547C1272.49 619.808 1273.31 621.265 1273.31 621.643C1273.31 622.8 1271.54 623.424 1270.53 623.134C1269.8 622.926 1269.58 623.441 1269.84 623.271C1270.46 622.857 1270.59 621.779 1270.59 622.188" stroke="#00ADB5" stroke-opacity="0.5" stroke-linecap="round" stroke-linejoin="round"/>
<path d="M1270.59 641.943C1269.89 643.432 1269.27 644.927 1268.44 646.334C1268.25 646.65 1267.91 647.297 1267.86 647.666C1267.75 648.66 1268.75 645.295 1268.95 644.805" stroke="#00ADB5" stroke-opacity="0.5" stroke-linecap="round" stroke-linejoin="round"/>
<path d="M1284.35 639.082C1286.08 641.261 1287.98 642.815 1289.32 645.206C1289.46 645.441 1289.68 645.628 1289.87 645.811C1290.48 646.423 1288.73 644.505 1288.16 643.851" stroke="#00ADB5" stroke-opacity="0.5" stroke-linecap="round" stroke-linejoin="round"/>
<path d="M1170.07 512.051C1171.14 516.123 1175.31 531.26 1176.31 536.791C1179.05 552.019 1174.75 531.24 1174.73 537.966" stroke="#00ADB5" stroke-opacity="0.5" stroke-width="2" stroke-linecap="round" stroke-linejoin="round"/>
<path d="M1162.75 518.634C1162.39 512.438 1161 503.838 1169.68 504.723C1173.77 505.14 1178.27 507.566 1180.82 510.812C1184.76 515.828 1182.68 523.604 1178.43 527.596C1176.16 529.72 1173.97 530.785 1171 531.588C1165.98 532.949 1169.94 525.976 1170.75 524.064" stroke="#00ADB5" stroke-opacity="0.5" stroke-width="2" stroke-linecap="round" stroke-linejoin="round"/>
<path d="M1185.35 526.207C1193.98 525.745 1201.93 524.046 1205.02 533.408C1206.81 538.849 1209 545.46 1207.5 551.194C1206.15 556.375 1203.24 559.614 1197.92 557.407C1190.31 554.253 1190.32 548.315 1194.46 542.393C1195.98 540.213 1201.82 535.847 1201.83 533.298" stroke="#00ADB5" stroke-opacity="0.5" stroke-width="2" stroke-linecap="round" stroke-linejoin="round"/>
<path d="M1200.91 516.104C1200.62 518.375 1200.61 534.444 1196.26 534.598C1195.45 534.627 1194.76 535.051 1194.05 535.406C1191.31 536.769 1192.98 535.542 1194 534.123C1196.32 530.909 1201.01 532.097 1203.35 527.831C1205.9 523.199 1207.08 520.921 1203.42 517.338C1200.86 514.826 1201.99 510.555 1199.97 516.573" stroke="#00ADB5" stroke-opacity="0.5" stroke-width="2" stroke-linecap="round" stroke-linejoin="round"/>
<path d="M1213.65 501.522C1216.99 509.033 1220.04 518.815 1225.39 525.354C1226.81 527.082 1227.6 525.578 1227.58 524.232C1227.55 522.532 1227.07 520.816 1226.58 519.206" stroke="#00ADB5" stroke-opacity="0.5" stroke-width="2" stroke-linecap="round" stroke-linejoin="round"/>
<path d="M1203.97 521.055C1209.26 518.972 1222.26 516.864 1224.47 510.253" stroke="#00ADB5" stroke-opacity="0.5" stroke-width="2" stroke-linecap="round" stroke-linejoin="round"/>
<path d="M1220.25 501.768C1243.19 541.902 1220.84 513.694 1232.5 506.353C1239.58 501.898 1240.17 522.897 1242.13 513.814" stroke="#00ADB5" stroke-opacity="0.5" stroke-width="2" stroke-linecap="round" stroke-linejoin="round"/>
<path d="M1240.74 500.387C1241.57 502.876 1244.37 519.307 1250.19 515.554C1252.79 513.875 1255.82 510.675 1256.33 507.529C1256.86 504.154 1254.76 495.579 1249.98 496.502C1247.81 496.924 1244.16 497.025 1242.74 499.095C1241.37 501.095 1240.5 505.779 1242.15 500.86" stroke="#00ADB5" stroke-opacity="0.5" stroke-width="2" stroke-linecap="round" stroke-linejoin="round"/>
<path d="M1257 496.409C1263.5 492.231 1271.15 490.86 1272.14 500.698C1272.27 501.933 1272.29 503.488 1272.86 504.625C1273.51 505.943 1272.16 501.403 1270.89 500.67" stroke="#00ADB5" stroke-opacity="0.5" stroke-width="2" stroke-linecap="round" stroke-linejoin="round"/>
<path d="M1256.52 500.176C1256.81 505.319 1256.08 512.286 1258.48 517.111C1258.56 517.275 1259.14 518.534 1258.85 517.844C1258.28 516.479 1258.04 515.553 1256.97 514.073" stroke="#00ADB5" stroke-opacity="0.5" stroke-width="2" stroke-linecap="round" stroke-linejoin="round"/>
<path d="M1091.83 546.734C1090.93 555.093 1092.5 580.829 1078.31 579.227C1075.35 578.894 1072.66 578.399 1071.25 575.61C1069.78 572.69 1068.56 570.149 1068.41 566.832C1068.23 562.758 1069.86 560.835 1073.15 558.996C1074.31 558.352 1071.82 560.962 1071.6 561.215C1070.16 562.878 1075.07 560.851 1076.95 560.435" stroke="#00ADB5" stroke-opacity="0.5" stroke-width="2" stroke-linecap="round" stroke-linejoin="round"/>
<path d="M1110.06 550.75C1102.88 551.422 1092.74 552.783 1091.58 561.767C1090.96 566.64 1098.2 567.232 1101.35 568.892C1106.75 571.743 1110.85 581.043 1104.79 585.136C1100.57 587.982 1097.39 586.469 1093.29 586.753C1089.12 587.042 1092.02 585.507 1094.49 585.086" stroke="#00ADB5" stroke-opacity="0.5" stroke-width="2" stroke-linecap="round" stroke-linejoin="round"/>
<path d="M1148.97 329.573C1148.4 335.341 1148.05 341.167 1147.34 346.92C1147.27 347.474 1146.72 349.659 1147.37 347.892C1147.84 346.601 1147.69 345.254 1148.44 344.029C1149.48 342.342 1154.19 335.915 1156.41 336.565C1160.84 337.868 1156.36 346.091 1155.1 348.447C1154.66 349.26 1153.47 351.023 1154.08 351.934C1154.91 353.149 1156.43 348.659 1156.49 348.522" stroke="#00ADB5" stroke-opacity="0.5" stroke-width="2" stroke-linecap="round" stroke-linejoin="round"/>
<path d="M1166.48 333.36C1165.96 335.937 1161.54 348.655 1165.8 350.762C1167 351.356 1169.65 350.234 1170.47 349.267C1171.33 348.259 1170.88 346.717 1170.79 345.547" stroke="#00ADB5" stroke-opacity="0.5" stroke-width="2" stroke-linecap="round" stroke-linejoin="round"/>
<path d="M1157.73 333.638C1162.4 335.026 1167.2 335.949 1171.83 337.381C1172.93 337.719 1173.34 337.872 1173.93 338.848C1174.84 340.366 1172.41 338.979 1171.99 338.519" stroke="#00ADB5" stroke-opacity="0.5" stroke-width="2" stroke-linecap="round" stroke-linejoin="round"/>
<path d="M1178.83 342.653C1177.76 345.886 1176.75 349.159 1175.53 352.34C1175.29 352.973 1175.25 353.204 1175.12 352.721C1174.99 352.256 1174.87 351.982 1175.08 351.49C1176.18 348.878 1178.74 345.124 1181.16 343.665C1183.77 342.09 1182.34 347.382 1181.99 348.453C1181.6 349.656 1180.54 352.953 1181.74 349.763C1182.46 347.864 1184.11 343.145 1186.89 343.831C1188.57 344.247 1188.18 346.522 1187.88 347.725C1187.34 349.943 1186.79 352.146 1186.24 354.371C1185.44 357.623 1185.87 355.866 1186.46 353.49" stroke="#00ADB5" stroke-opacity="0.5" stroke-width="2" stroke-linecap="round" stroke-linejoin="round"/>
<path d="M1199.57 335.575C1197.89 341.603 1195.84 347.613 1194.39 353.704C1194.22 354.418 1193.85 357.063 1194.99 357.378C1196.07 357.678 1200.34 355.113 1199.3 354.224" stroke="#00ADB5" stroke-opacity="0.5" stroke-width="2" stroke-linecap="round" stroke-linejoin="round"/>
<path d="M909.427 581.46C905.464 588.989 901.513 596.525 897.539 604.048C896.407 606.193 894.171 612.753 893.894 610.344C893.519 607.077 895.515 602.504 896.362 599.443C897.557 595.122 899.991 586.491 906.056 586.522C910.634 586.547 915.781 593.26 916.491 597.449C916.992 600.406 918.45 597.066 920.428 596.174" stroke="#00ADB5" stroke-opacity="0.5" stroke-width="2" stroke-linecap="round" stroke-linejoin="round"/>
<path d="M921.712 605.581C924.376 611.775 928.302 622.246 936.386 616.485C940.101 613.838 938.255 609.308 934.588 607.869C925.601 604.343 914.276 614.189 912.035 622.282C909.794 630.374 918.64 632.855 924.725 633.654C928.092 634.096 927.337 631.218 930.234 630.216" stroke="#00ADB5" stroke-opacity="0.5" stroke-width="2" stroke-linecap="round" stroke-linejoin="round"/>
<path d="M944.095 626.997C937.113 624.082 927.864 621.483 923.93 630.405C922.033 634.705 930.52 635.21 933.038 635.091C937.846 634.865 948.552 623.735 944.945 626.922C941.779 629.719 938.576 633.02 937.274 637.15C936.434 639.818 937.399 645.711 940.492 641.641" stroke="#00ADB5" stroke-opacity="0.5" stroke-width="2" stroke-linecap="round" stroke-linejoin="round"/>
<path d="M971.244 632.579C961.111 633.551 949.102 634.06 945.507 645.445C943.74 651.041 947.886 654.933 952.882 656.575C956.373 657.723 959.932 655.231 962.05 652.703" stroke="#00ADB5" stroke-opacity="0.5" stroke-width="2" stroke-linecap="round" stroke-linejoin="round"/>
<path d="M980.448 634.123C979.892 634.799 954.931 662.004 966.829 662.214C970.124 662.273 973.505 660.356 975.773 658.201" stroke="#00ADB5" stroke-opacity="0.5" stroke-width="2" stroke-linecap="round" stroke-linejoin="round"/>
<path d="M959.305 639.073C964.098 642.378 968.823 645.878 974.08 648.432C975.445 649.096 977.72 649.412 978.66 650.788C979.188 651.561 978.358 649.725 978.266 649.458" stroke="#00ADB5" stroke-opacity="0.5" stroke-width="2" stroke-linecap="round" stroke-linejoin="round"/>
<path d="M905.848 421.255C909.87 428.133 922.642 448.199 917.457 442.15C914.143 438.283 911.625 433.151 909.524 428.576C907.319 423.776 905.248 415.211 913.651 415.645C920.864 416.019 923.743 423.384 925.012 429.421C925.571 432.084 925.714 434.153 926.909 436.575C928.13 439.052 928.198 429.509 928.662 427.033" stroke="#00ADB5" stroke-opacity="0.5" stroke-width="2" stroke-linecap="round" stroke-linejoin="round"/>
<path d="M931.833 407.267C932.057 408.307 935.533 432.092 940.579 427.518C942.704 425.592 943.171 420.844 943.444 418.243C944.296 410.114 940.862 409.11 935.155 407.39C932.433 406.569 931.875 406.606 931.127 409.409C929.592 415.164 932.012 413.547 935.113 410.347" stroke="#00ADB5" stroke-opacity="0.5" stroke-width="2" stroke-linecap="round" stroke-linejoin="round"/>
<path d="M953.773 400.557C950.97 405.282 947.395 410.84 949.367 416.627C950.185 419.028 952.088 418.393 953.421 417.042C955.524 414.909 956.621 411.404 956.504 408.475C956.28 402.861 952.763 398.057 949.072 394.068C948.561 393.514 943.9 389.673 944.813 392.971C946.452 398.896 951.015 404.595 954.194 409.745C959.434 418.232 961.041 414.936 963.395 406.969" stroke="#00ADB5" stroke-opacity="0.5" stroke-width="2" stroke-linecap="round" stroke-linejoin="round"/>
<path d="M963.893 402.026C965.633 403.649 979.363 413.456 979.789 404.757C979.827 403.968 978.821 403.721 978.49 403.049C977.635 401.316 976.219 400.173 975.449 399.264" stroke="#00ADB5" stroke-opacity="0.5" stroke-width="2" stroke-linecap="round" stroke-linejoin="round"/>
<path d="M965.038 407.921C959.602 400.782 952.008 393.36 959.792 386.302C963.072 383.328 969.878 385.68 969.7 390.648C969.617 392.962 969.129 398.685 965.805 399.289C964.048 399.608 963.238 398.458 964.863 396.85" stroke="#00ADB5" stroke-opacity="0.5" stroke-width="2" stroke-linecap="round" stroke-linejoin="round"/>
<path d="M977.448 378.313C980.963 380.549 1006.01 395.35 992.89 401.819C990.845 402.828 989.046 400.478 987.959 398.966C985.509 395.558 992.647 390.723 992.944 387.113" stroke="#00ADB5" stroke-opacity="0.5" stroke-width="2" stroke-linecap="round" stroke-linejoin="round"/>
<path d="M998.005 366.414C995.959 368.085 984.225 378.462 993.452 380.468C998.549 381.577 1003.37 376.498 1007.24 373.963C1013.48 369.879 1014.8 377.737 1013.08 382.173C1012.03 384.889 1003.27 393.779 1005.67 386.711" stroke="#00ADB5" stroke-opacity="0.5" stroke-width="2" stroke-linecap="round" stroke-linejoin="round"/>
<path d="M1067.26 752.65C1059.45 756.578 1049.23 763.742 1057.66 773.247C1061.71 777.807 1069.19 775.939 1074.52 775.412C1076.02 775.264 1080.15 776.705 1079.02 775.705C1076.59 773.542 1074.84 773.681 1074.11 770.029" stroke="#00ADB5" stroke-opacity="0.5" stroke-width="2" stroke-linecap="round" stroke-linejoin="round"/>
<path d="M1090.43 750.016C1090.43 755.771 1090.38 759.891 1096.29 762.129C1098.84 763.096 1100.44 763.983 1101.11 766.84C1101.88 770.069 1099.62 774.747 1096.96 776.553C1093.66 778.786 1089.52 779.565 1085.81 778.045C1082.63 776.743 1086.15 775.204 1087.8 773.715" stroke="#00ADB5" stroke-opacity="0.5" stroke-width="2" stroke-linecap="round" stroke-linejoin="round"/>
<path d="M1116.24 743.697C1115.2 747.71 1110.53 758.443 1114.69 762.597C1116.36 764.274 1119.61 763.343 1121.68 763.826C1123.74 764.307 1125.5 765.882 1126.77 767.513C1128.78 770.094 1126.87 774.006 1124.55 775.822C1120.95 778.639 1115.81 777.402 1111.62 777.402C1109.33 777.402 1110.89 777.24 1112.03 775.822" stroke="#00ADB5" stroke-opacity="0.5" stroke-width="2" stroke-linecap="round" stroke-linejoin="round"/>
<path d="M1107.16 693.752C1111.22 692.204 1118.74 689.74 1122.67 686.964C1126.81 684.034 1122.47 683.192 1120.27 683.892C1116.53 685.079 1114.28 688.99 1113.01 692.436C1109.68 701.507 1120.28 711.761 1129.19 710.722C1137.43 709.761 1138.57 705.729 1139.81 699.545" stroke="#00ADB5" stroke-opacity="0.5" stroke-width="2" stroke-linecap="round" stroke-linejoin="round"/>
<path d="M1145.08 689.012C1144.16 690.515 1135.39 708.561 1132.97 700.072" stroke="#00ADB5" stroke-opacity="0.5" stroke-width="2" stroke-linecap="round" stroke-linejoin="round"/>
<path d="M1128.75 689.539C1132.45 694.482 1141.38 712.156 1150.34 711.658C1151.64 711.586 1149.92 706.583 1149.82 705.865" stroke="#00ADB5" stroke-opacity="0.5" stroke-width="2" stroke-linecap="round" stroke-linejoin="round"/>
<path d="M1152.98 689.539C1155.02 701.506 1159.11 737.674 1156.78 725.76C1155.58 719.617 1144.6 686.374 1154.26 687.754C1158.45 688.353 1169.15 694.466 1166.35 700.072C1164.77 703.224 1155.01 704.324 1159.3 702.178" stroke="#00ADB5" stroke-opacity="0.5" stroke-width="2" stroke-linecap="round" stroke-linejoin="round"/>
<path d="M1172.99 697.965C1174.29 704.736 1175.54 711.502 1176.68 718.299C1176.87 719.463 1176.61 718.504 1176.27 717.861C1174.11 713.821 1171.16 706.623 1171.26 702.091C1171.36 697.797 1177.27 694.869 1180.36 697.965" stroke="#00ADB5" stroke-opacity="0.5" stroke-width="2" stroke-linecap="round" stroke-linejoin="round"/>
<path d="M1189.84 705.865C1189.71 710.821 1193.3 728.172 1201.84 723.127C1203.06 722.404 1206.08 720.638 1206.17 719.031C1206.22 718.174 1204.66 717.978 1204.06 717.978C1202.5 717.978 1202.11 716.037 1201.43 714.818" stroke="#00ADB5" stroke-opacity="0.5" stroke-width="2" stroke-linecap="round" stroke-linejoin="round"/>
<path d="M1187.21 707.445C1191.82 702.673 1197.01 696.099 1201.11 704.607C1202.31 707.098 1201.89 710.099 1200.9 712.594C1199.31 716.625 1193.6 718.215 1195.11 712.185" stroke="#00ADB5" stroke-opacity="0.5" stroke-width="2" stroke-linecap="round" stroke-linejoin="round"/>
<path d="M1215.65 697.965C1219.26 703.733 1233.86 719.281 1224.28 726.375C1221.21 728.644 1219.21 728.634 1215.76 728.51C1210.89 728.336 1213.47 727.102 1215.12 723.244" stroke="#00ADB5" stroke-opacity="0.5" stroke-width="2" stroke-linecap="round" stroke-linejoin="round"/>
<path d="M1237.77 695.859C1236.68 697.178 1222.59 710.792 1231.15 712.243C1234.31 712.778 1237.21 710.867 1240.11 712.799C1245.34 716.285 1244.1 721.01 1239.29 723.975C1236.88 725.458 1234.2 726.235 1231.68 727.457C1230.26 728.148 1231.77 726.147 1231.97 725.351" stroke="#00ADB5" stroke-opacity="0.5" stroke-width="2" stroke-linecap="round" stroke-linejoin="round"/>
<path d="M1225.65 690.066C1224.43 690.964 1211.26 698.271 1213.13 702.705C1215.49 708.299 1216.27 701.413 1216.7 699.019" stroke="#00ADB5" stroke-opacity="0.5" stroke-width="2" stroke-linecap="round" stroke-linejoin="round"/>
<path d="M901.971 517.793C904.317 512.263 903.356 507.444 903.356 501.712C903.356 500.597 903.154 497.201 904.325 496.593C906.173 495.634 907.9 494.994 910.08 494.994C911.53 494.994 912.986 495.036 914.435 494.994C915.884 494.953 917.288 494.363 918.72 494.188C921.386 493.861 924.159 494.316 926.791 494.316C928.881 494.316 931.043 494.587 933.054 494.587C933.411 494.587 934.866 494.757 935.1 494.964C935.818 495.597 935.612 496.612 936.178 497.166" stroke="#00ADB5" stroke-opacity="0.5" stroke-linecap="round" stroke-linejoin="round"/>
<path d="M936.04 497.656C936.131 499.288 936.165 501.578 936.837 503.173C937.272 504.206 936.925 505.582 937.013 506.683C937.182 508.795 936.867 510.855 936.867 512.905C936.867 515.654 937.005 518.369 937.005 521.104C937.005 523.451 934.712 523.058 932.898 522.728C931.331 522.443 929.228 523.015 927.595 523.035C924.445 523.074 921.28 523.311 918.124 523.311C915.489 523.311 913.532 522.545 911.105 521.625C909.809 521.133 909.026 521.242 907.634 521.242C906.316 521.242 905.231 521.036 903.91 521.449C903.137 521.69 901.752 521.482 901.312 520.69C900.785 519.741 901.833 519.329 901.833 518.552C901.833 517.9 901.751 516.034 901.971 517.794" stroke="#00ADB5" stroke-opacity="0.5" stroke-linecap="round" stroke-linejoin="round"/>
<path d="M917.695 501.242C917.695 501.242 918.247 501.518 918.799 502.07C919.35 502.483 920.512 502.277 921.488 502.277C922.002 502.277 922.545 501.876 923.005 501.671C923.939 501.256 923.382 502.037 923.159 502.483C922.911 502.978 923.194 503.898 923.641 504.208C924.38 504.719 925.111 504.278 925.833 503.916C926.133 503.766 926.051 503.697 926.143 503.901C926.269 504.178 926.247 504.58 926.247 504.882C926.247 505.569 926.202 506.712 925.833 507.311C925.348 508.099 924.858 508.609 924.078 509.188C923.308 509.761 922.29 510.759 921.266 510.759C919.265 510.759 917.141 510.323 916.14 508.376C915.715 507.551 914.937 506.875 914.937 505.932C914.937 505.144 914.676 504.201 914.937 503.449C915.252 502.537 916.04 501.671 915.764 501.671C915.905 501.711 917.143 500.966 917.695 501.242Z" stroke="#00ADB5" stroke-opacity="0.5" stroke-linecap="round" stroke-linejoin="round"/>
<path d="M919.971 500.759C920.747 500.472 922.519 499.87 922.936 498.932C923.259 498.206 922.193 498.07 921.626 498.07C920.938 498.07 920.123 499.02 919.94 499.621C919.839 499.956 919.742 500.298 919.642 500.637C919.593 500.8 919.658 500.918 919.691 501.07C919.717 501.185 920.769 500.632 920.73 500.474" stroke="#00ADB5" stroke-opacity="0.5" stroke-linecap="round" stroke-linejoin="round"/>
<path d="M933.908 516.273L903.37 516.944C900.139 517.015 897.557 519.654 897.557 522.885C897.557 526.167 900.218 528.828 903.5 528.828H934.04C937.353 528.828 940.04 526.142 940.04 522.828V522.272C940.04 518.906 937.272 516.199 933.908 516.273Z" stroke="#00ADB5" stroke-opacity="0.5"/>
<path d="M910.059 516.777C910.517 517.487 910.912 518.34 911.438 518.997C911.702 519.327 911.66 519.26 912.173 519.07C913.028 518.753 913.997 518.981 914.89 518.981C915.674 518.981 916.585 518.571 917.347 518.777C918.229 519.014 919.269 518.561 920.138 518.54C921.184 518.515 922.182 518.613 923.222 518.613C923.85 518.613 924.461 518.246 925.042 518.246C925.379 518.246 926.34 518.513 926.364 517.895C926.376 517.594 926.511 517.302 926.511 516.997C926.511 516.586 926.265 516.764 925.85 516.557" stroke="#00ADB5" stroke-opacity="0.5" stroke-linecap="round" stroke-linejoin="round"/>
<path d="M1059.48 366.006C1060.05 365.286 1061.13 363.954 1059.61 363.718C1059.27 363.665 1058.95 363.463 1058.61 363.616C1057.57 364.087 1056.6 365.124 1056.6 366.357C1056.6 368.327 1058.76 368.754 1060.33 368.728C1062.98 368.685 1063.79 366.106 1064.72 364.016C1065.67 361.905 1066.71 359.828 1067.7 357.732C1068.8 355.361 1070.62 353.472 1071.77 351.122C1072.27 350.114 1072.91 349.227 1073.55 348.307C1074.53 346.88 1075.23 345.44 1075.94 343.858C1076.52 342.56 1077.16 341.374 1077.87 340.145C1078.15 339.648 1078.05 338.887 1078.59 339.418C1079.01 339.822 1079.67 340.087 1080.23 340.189C1082.68 340.637 1084.93 341.112 1087.45 340.911C1090 340.709 1092.55 340.343 1095.05 339.857C1095.91 339.692 1095.54 339.891 1095.14 340.409C1094.46 341.287 1093.88 342.217 1093.22 343.107C1092.37 344.267 1092.07 345.664 1091.57 346.99C1091.01 348.448 1090.35 349.84 1089.82 351.322C1088.8 354.186 1087.31 356.797 1085.46 359.201C1084.39 360.594 1083.06 363.026 1081.06 362.928C1077.96 362.775 1080.05 356.668 1081.53 355.474C1082.33 354.831 1083.21 355.523 1083.3 356.386C1083.44 357.572 1083.03 359.197 1081.88 359.776C1080.66 360.388 1079.73 360.315 1080.67 358.737C1081.23 357.783 1081.57 358.833 1081.8 358.366" stroke="#00ADB5" stroke-opacity="0.5" stroke-width="2" stroke-linecap="round" stroke-linejoin="round"/>
<path d="M1293.31 578.769C1293.87 578.048 1294.96 576.716 1293.44 576.481C1293.09 576.427 1292.77 576.225 1292.44 576.378C1291.4 576.849 1290.43 577.887 1290.43 579.12C1290.43 581.09 1292.59 581.516 1294.16 581.491C1296.81 581.448 1297.61 578.868 1298.55 576.778C1299.49 574.667 1300.54 572.59 1301.52 570.495C1302.63 568.123 1304.45 566.234 1305.6 563.884C1306.1 562.877 1306.74 561.989 1307.37 561.069C1308.36 559.642 1309.06 558.202 1309.77 556.62C1310.35 555.322 1310.99 554.136 1311.7 552.908C1311.98 552.411 1311.87 551.649 1312.42 552.181C1312.84 552.584 1313.5 552.849 1314.06 552.951C1316.51 553.4 1318.76 553.874 1321.28 553.673C1323.83 553.471 1326.37 553.106 1328.88 552.62C1329.73 552.455 1329.37 552.653 1328.97 553.171C1328.29 554.049 1327.7 554.979 1327.05 555.869C1326.2 557.029 1325.9 558.426 1325.39 559.752C1324.84 561.21 1324.18 562.602 1323.65 564.084C1322.63 566.948 1321.13 569.56 1319.29 571.963C1318.22 573.356 1316.89 575.789 1314.89 575.69C1311.79 575.538 1313.88 569.43 1315.36 568.236C1316.16 567.593 1317.03 568.285 1317.13 569.148C1317.26 570.334 1316.86 571.959 1315.71 572.539C1314.49 573.15 1313.56 573.077 1314.5 571.5C1315.06 570.545 1315.4 571.596 1315.63 571.129" stroke="#00ADB5" stroke-opacity="0.5" stroke-width="2" stroke-linecap="round" stroke-linejoin="round"/>
<path d="M1268.31 454.664C1265.71 449.959 1265.86 448.615 1266.46 443.879C1266.78 441.272 1266.91 438.723 1267.57 436.158C1268.75 431.57 1269.13 425.391 1265.43 421.697C1258.17 414.428 1244.63 424.766 1248.73 433.988C1250.29 437.498 1252.98 440.097 1254.93 443.407C1255.71 444.735 1256.15 446.174 1257.16 447.415C1258.14 448.605 1259.35 450.086 1259.35 451.563C1259.35 452.811 1258.97 454.429 1259.86 455.532C1261.08 457.056 1260.64 456.272 1262.45 456.272C1263.69 456.272 1265.52 455.286 1266.52 454.486C1267.23 453.914 1267.62 455.567 1267.62 453.975C1267.62 452.608 1267.18 453.745 1268.08 453.745" stroke="#00ADB5" stroke-opacity="0.5" stroke-linecap="round" stroke-linejoin="round"/>
<path d="M1262.56 459.029C1265.02 458.297 1271.82 456.661 1270.25 458.685C1268.35 461.126 1267.53 459.903 1265.2 460.421C1264.01 460.685 1262.85 464.363 1264.17 464.441C1266.05 464.552 1267.3 462.016 1269.22 462.016C1270.97 462.016 1270.85 464.315 1269.8 465.13C1268.42 466.206 1266.82 465.05 1265.89 466.726C1264.42 469.374 1268.44 468.943 1269.58 468.321C1270.73 467.694 1271.82 466.715 1272.67 466.151" stroke="#00ADB5" stroke-opacity="0.5" stroke-linecap="round" stroke-linejoin="round"/>
<path d="M1268.31 453.918C1268.27 454.118 1268.24 455.468 1267.7 455.468C1267.41 455.468 1267.28 455.292 1267.01 455.44C1266.7 455.613 1266.41 456.021 1266.11 456.26C1265.85 456.47 1265.07 456.444 1264.92 456.706C1264.67 457.135 1264.18 457.37 1263.71 457.421C1263.11 457.488 1262.89 457.79 1262.25 457.648C1262.05 457.604 1262.03 457.479 1261.85 457.479C1261.56 457.479 1261.44 457.614 1261.23 457.377C1260.99 457.114 1260.61 456.991 1260.49 456.592C1260.34 456.049 1259.77 455.764 1260.61 456.1" stroke="#00ADB5" stroke-opacity="0.5" stroke-linecap="round" stroke-linejoin="round"/>
<path d="M1257.22 431.174C1258.25 431.179 1259.1 431.246 1259.45 432.335C1259.69 433.077 1259.69 433.805 1259.69 434.575C1259.69 435.324 1259.23 435.926 1259.23 436.63C1259.23 437.561 1259.98 437.409 1260.61 437.693C1261.2 437.961 1261.63 438.184 1261.96 438.784C1262.28 439.377 1262.03 440.525 1261.99 441.171C1261.95 441.726 1261.69 442.906 1262.07 443.375C1262.28 443.63 1263.42 444.024 1262.68 443.465" stroke="#00ADB5" stroke-opacity="0.5" stroke-linecap="round" stroke-linejoin="round"/>
<path d="M1248.55 441.569C1247.73 442.116 1246.89 442.574 1245.97 442.919C1245.58 443.064 1245.07 443.322 1245.16 442.718" stroke="#00ADB5" stroke-opacity="0.5" stroke-linecap="round" stroke-linejoin="round"/>
<path d="M1245.56 433.643C1244.1 433.995 1242.66 434.39 1241.21 434.779C1240.97 434.844 1241.52 434.236 1241.54 434.218" stroke="#00ADB5" stroke-opacity="0.5" stroke-linecap="round" stroke-linejoin="round"/>
<path d="M1245.16 426.12C1243.65 425.9 1242.14 425.628 1240.64 425.36C1239.95 425.237 1239.66 425.328 1240.05 424.741" stroke="#00ADB5" stroke-opacity="0.5" stroke-linecap="round" stroke-linejoin="round"/>
<path d="M1253.32 418.136C1252.12 417.927 1251.09 417.725 1250.01 417.185C1249.5 416.933 1249.02 416.63 1248.49 416.426C1247.86 416.184 1247.85 416.258 1248.55 415.839" stroke="#00ADB5" stroke-opacity="0.5" stroke-linecap="round" stroke-linejoin="round"/>
<path d="M1263.71 412.967C1263.89 414.186 1263.83 414.916 1263.33 416.021C1263.07 416.616 1262.84 417.369 1262.71 418.012C1262.67 418.233 1262.64 418.359 1262.49 418.526C1262.44 418.588 1262.64 417.848 1262.68 417.734" stroke="#00ADB5" stroke-opacity="0.5" stroke-linecap="round" stroke-linejoin="round"/>
<path d="M1272.5 417.849C1272.12 419.118 1271.57 420.336 1271.25 421.608C1271.08 422.251 1271.19 422.29 1271.46 421.64" stroke="#00ADB5" stroke-opacity="0.5" stroke-linecap="round" stroke-linejoin="round"/>
<path d="M1276.17 426.981C1274.87 428.11 1273.8 429.512 1272.79 430.899C1272.66 431.073 1272.51 431.135 1272.37 431.276C1272.05 431.596 1272.6 430.873 1272.67 430.772" stroke="#00ADB5" stroke-opacity="0.5" stroke-linecap="round" stroke-linejoin="round"/>
<path d="M983.734 542.189C985.644 550.791 987.794 559.412 989.057 568.144C989.763 573.022 988.213 565.983 988.021 564.988C987.604 562.834 987.126 560.926 987.126 558.723C987.126 554.29 987.007 549.807 986.678 545.369C986.448 542.262 982.632 533.011 987.455 540.729C992.374 548.598 995.846 557.299 999.185 565.883C999.645 567.066 1000.28 568.187 1000.79 569.322C1001.06 569.942 995.899 564.896 993.909 563.811" stroke="#00ADB5" stroke-opacity="0.5" stroke-width="2" stroke-linecap="round" stroke-linejoin="round"/>
<path d="M980.766 561.267C986.278 559.067 998.431 554.919 1001.96 548.737C1003.44 546.147 1003.16 547.344 998.996 548.124" stroke="#00ADB5" stroke-opacity="0.5" stroke-width="2" stroke-linecap="round" stroke-linejoin="round"/>
<path d="M997.301 532.438C1001.55 540.858 1004.63 549.824 1005.8 559.171C1005.91 560.037 1006.11 560.987 1006.72 561.597C1006.83 561.71 1004.68 557.679 1004.08 556.603" stroke="#00ADB5" stroke-opacity="0.5" stroke-width="2" stroke-linecap="round" stroke-linejoin="round"/>
<path d="M997.301 532.014C1000.6 533.99 1012.71 541.287 1004.81 545.934C1004.12 546.342 1003.31 546.718 1002.81 547.371C1001.76 548.752 1001.64 549.157 1002.39 547.276" stroke="#00ADB5" stroke-opacity="0.5" stroke-width="2" stroke-linecap="round" stroke-linejoin="round"/>
<path d="M1008.32 527.775C1009.73 537.293 1012.14 547.752 1012.14 557.451C1012.14 559.592 1011.78 555.627 1011.29 554.484" stroke="#00ADB5" stroke-opacity="0.5" stroke-width="2" stroke-linecap="round" stroke-linejoin="round"/>
<path d="M1018.07 544.733C1020.4 551.671 1021.6 555.76 1014.78 557.781C1012.45 558.472 1015.26 555.086 1015.86 554.672C1017.9 553.259 1019.93 548.711 1017.65 546.428C1016.74 545.52 1014.57 546.667 1013.93 545.581C1012.99 543.979 1015.1 540.945 1016.38 540.163C1020.06 537.914 1019.6 541.084 1018.07 540.069" stroke="#00ADB5" stroke-opacity="0.5" stroke-width="2" stroke-linecap="round" stroke-linejoin="round"/>
<path d="M1145.43 415.985C1146.83 423.379 1152.62 444.97 1149.25 438.238C1148.89 437.513 1148.59 436.898 1148.55 436.075C1148.44 433.03 1148.21 429.847 1147.16 426.957C1146.28 424.54 1146.47 422.034 1146.47 419.462C1146.47 418.947 1145.59 414.892 1145.68 414.865C1146.56 414.57 1150.21 419.006 1150.87 419.771C1154.21 423.639 1157.59 428.084 1159.97 432.617C1161.2 434.95 1161.57 435.786 1158.64 436.152" stroke="#00ADB5" stroke-opacity="0.5" stroke-width="2" stroke-linecap="round" stroke-linejoin="round"/>
<path d="M1145.08 430.936C1148.34 429.281 1151.45 427.958 1154.81 426.764" stroke="#00ADB5" stroke-opacity="0.5" stroke-width="2" stroke-linecap="round" stroke-linejoin="round"/>
<path d="M1154.47 416.333C1157.81 421.337 1160.99 426.663 1164.88 431.284C1165.43 431.943 1166.6 433.14 1166.6 431.593C1166.6 429.482 1165.43 427.3 1164.9 425.296C1164.05 422.09 1163.26 418.869 1162.54 415.637C1161.85 412.517 1162.34 413.682 1163.51 416.024C1165.45 419.903 1167.49 423.437 1170.19 426.88C1172.01 429.199 1172.2 427.908 1172.2 425.875C1172.2 422.184 1170.4 419.148 1169.07 415.83C1167.65 412.286 1167.75 407.448 1166.13 404.221C1165.51 402.966 1165.42 406.943 1165.25 408.335" stroke="#00ADB5" stroke-opacity="0.5" stroke-width="2" stroke-linecap="round" stroke-linejoin="round"/>
<path d="M1173.24 403.815C1173.33 404.224 1174.63 414.347 1176.91 413.203C1177.91 412.702 1178.16 411.169 1179.19 410.653C1180.86 409.818 1182.67 411.298 1183.33 412.74C1185.06 416.552 1183.06 420.967 1179.93 423.287C1175.58 426.5 1177.07 420.716 1177.07 419.114" stroke="#00ADB5" stroke-opacity="0.5" stroke-width="2" stroke-linecap="round" stroke-linejoin="round"/>
<path d="M1175.33 403.12C1174.7 404.83 1173.57 412.768 1173.22 409.688C1173.01 407.786 1173.39 406.34 1173.59 404.511C1174.07 400.172 1177.39 403.662 1176.02 401.381" stroke="#00ADB5" stroke-opacity="0.5" stroke-width="2" stroke-linecap="round" stroke-linejoin="round"/>
<path d="M1152.14 631.508C1152.02 631.295 1147.01 622.657 1147.44 622.408C1148.04 622.064 1149.17 622.399 1149.88 622.133C1151.97 621.348 1153.65 619.728 1155.38 618.388C1157.19 616.978 1159.67 628.036 1160.22 630.365C1160.89 633.183 1162.63 636.929 1159.38 638.555C1156.45 640.021 1152.59 639.578 1149.39 639.507C1144.17 639.391 1140.56 630.821 1139.95 626.556C1139.51 623.451 1135.21 613.483 1139.82 611.489C1141.06 610.955 1143.16 611.32 1144.5 611.32C1146.42 611.32 1148.09 610.177 1150.04 610.177C1153.15 610.177 1154.09 614.055 1151.38 609.796" stroke="#00ADB5" stroke-opacity="0.5" stroke-width="2" stroke-linecap="round" stroke-linejoin="round"/>
<path d="M1160.9 612.843C1161.44 614.815 1163.18 625.762 1167.76 622.959C1168.63 622.425 1169.26 621.131 1169.58 620.208C1170.42 617.742 1170.6 615.683 1168.71 613.796C1167.3 612.381 1164.56 609.494 1162.51 609.415C1157.41 609.219 1161.91 614.927 1161.28 613.986" stroke="#00ADB5" stroke-opacity="0.5" stroke-width="2" stroke-linecap="round" stroke-linejoin="round"/>
<path d="M1161.66 595.321C1165.43 601.27 1171.1 607.812 1173.39 614.663C1173.68 615.537 1173.69 616.131 1174.23 616.949C1175.06 618.182 1175.44 619.972 1176.22 618.091C1177.35 615.368 1179.92 612.951 1181.94 610.854C1184.43 608.268 1184.77 609.034 1180.33 609.034" stroke="#00ADB5" stroke-opacity="0.5" stroke-width="2" stroke-linecap="round" stroke-linejoin="round"/>
<path d="M1187.95 593.417C1187.47 594.484 1180.3 608.685 1187.23 605.458C1188.6 604.816 1190.01 603.817 1189.83 602.178C1189.65 600.598 1188.33 599.356 1187.65 597.988C1187.26 597.214 1185.72 593.489 1186.25 594.559C1187.84 597.741 1189.98 603.408 1192.35 605.775C1195.1 608.533 1196.76 605.635 1194.04 604.082" stroke="#00ADB5" stroke-opacity="0.5" stroke-width="2" stroke-linecap="round" stroke-linejoin="round"/>
<path d="M1192.14 594.94C1202.74 611.758 1189.32 592.888 1192.41 589.586C1195.4 586.391 1198.93 592.527 1200.05 594.475C1202 597.868 1203.92 606.671 1200.9 597.607" stroke="#00ADB5" stroke-opacity="0.5" stroke-width="2" stroke-linecap="round" stroke-linejoin="round"/>
<path d="M1205.47 580.466C1205.29 581.101 1199.6 597.105 1203.86 595.618C1205.67 594.986 1207.49 593.555 1208.45 591.914C1209.57 590.02 1210.08 587.423 1209.28 585.333C1208.73 583.908 1208.13 582.386 1207.37 581.058C1205.57 577.904 1210.43 587.652 1211.88 590.983C1214.01 595.86 1219.13 612.959 1207.05 609.563C1201.79 608.082 1206.75 599.892 1206.23 599.892" stroke="#00ADB5" stroke-opacity="0.5" stroke-width="2" stroke-linecap="round" stroke-linejoin="round"/>
<path d="M1055.55 501.765C1057.44 501.245 1059.06 500.721 1060.39 499.223C1060.91 498.633 1060.98 497.879 1061.25 497.164C1061.6 496.235 1061.17 495.046 1060.87 494.154C1060.63 493.441 1061.93 493.041 1062.39 493.011C1063.19 492.96 1063.8 493.467 1064.57 493.512C1065.49 493.566 1066.47 493.861 1067.11 494.58C1067.54 495.067 1068.12 495.182 1068.6 495.605C1069.06 496.006 1069.42 496.706 1069.75 497.22C1070.7 498.707 1070.97 500.442 1071.24 502.143C1071.38 502.959 1071.46 503.846 1071.32 504.67C1071.15 505.654 1071.33 506.6 1070.94 507.543C1070.67 508.194 1070.24 509.057 1069.63 509.442C1069 509.837 1068.42 509.979 1068.26 510.798C1067.93 512.508 1068.79 514.183 1068.46 515.909C1068.16 517.442 1066.14 517.676 1064.88 517.922C1064.02 518.091 1062.45 518.356 1061.61 517.903C1060.06 517.059 1058.94 516.005 1057.79 514.662C1056.77 513.472 1056.38 511.733 1056.25 510.212C1056.11 508.659 1056.11 506.973 1056.14 505.403C1056.17 504.361 1056.47 503.314 1056.57 502.275C1056.65 501.425 1056.92 501.357 1056.48 502.445" stroke="#00ADB5" stroke-opacity="0.5" stroke-linecap="round" stroke-linejoin="round"/>
<path d="M1066.52 494.027C1067.16 492.378 1067.86 490.73 1068.35 489.029C1068.57 488.265 1068.62 487.455 1068.9 486.709C1069.22 485.842 1069.38 484.862 1069.51 483.955C1069.61 483.305 1069.66 482.154 1070.26 481.744C1070.69 481.445 1070.94 480.762 1071.4 480.402C1072 479.941 1072.85 479.512 1073.27 478.895C1073.69 478.29 1074.13 477.04 1073.78 476.34C1073.59 475.951 1073.62 475.532 1073.43 475.149C1073.18 474.651 1072.95 474.247 1072.76 473.708C1072.6 473.237 1072.08 472.295 1072.68 471.96C1074.16 471.141 1074.26 472.431 1074.72 473.609C1074.96 474.218 1074.99 474.961 1075.21 475.593C1075.36 476.026 1075.63 475.713 1075.83 475.962C1076.14 476.336 1076.15 476.804 1076.38 477.209C1076.73 477.815 1076.32 479.044 1076.15 479.637C1075.82 480.735 1075.49 481.729 1075 482.783C1073.76 485.499 1071.73 487.786 1070.35 490.418C1069.82 491.419 1069.39 492.428 1069.14 493.536C1068.99 494.165 1068.56 494.765 1068.56 495.43C1068.56 496.037 1068.41 496.348 1068.73 495.387" stroke="#00ADB5" stroke-opacity="0.5" stroke-linecap="round" stroke-linejoin="round"/>
<path d="M1073.15 473.534C1072.07 473.7 1070.89 473.763 1069.92 474.247C1069.79 474.313 1069.99 474.14 1070.09 474.129C1071.39 473.976 1072.8 472.82 1073.98 472.258C1074.86 471.84 1076.06 470.898 1077.06 470.898C1077.35 470.898 1076.1 471.705 1075.96 471.833" stroke="#00ADB5" stroke-opacity="0.5" stroke-linecap="round" stroke-linejoin="round"/>
<path d="M1072.05 475.404C1073.25 474.704 1075.35 473.944 1076.23 472.768C1076.32 472.654 1076.38 472.5 1076.51 472.428C1076.94 472.178 1076.17 472.457 1076.04 472.513" stroke="#00ADB5" stroke-opacity="0.5" stroke-linecap="round" stroke-linejoin="round"/>
<path d="M1072.9 476.51C1074.34 475.956 1076.99 475.464 1077.78 473.874C1077.9 473.644 1077.64 473.704 1077.49 473.704" stroke="#00ADB5" stroke-opacity="0.5" stroke-linecap="round" stroke-linejoin="round"/>
<path d="M1074.43 476.34C1074.33 478.29 1074.35 480.273 1073.24 481.943C1072.7 482.757 1072.32 483.299 1072.13 484.253C1071.93 485.272 1071.7 486.123 1071.24 487.054C1070.78 487.972 1070.24 488.724 1069.79 489.605C1069.55 490.062 1068.98 490.502 1069.09 491.051C1069.15 491.328 1069.01 491.576 1068.92 491.835C1068.65 492.603 1068.16 493.279 1067.69 493.942C1067.37 494.392 1067.38 495.2 1067.79 494.367" stroke="#00ADB5" stroke-opacity="0.5" stroke-linecap="round" stroke-linejoin="round"/>
<path d="M1067.54 492.071C1068.31 492.238 1069.47 492.751 1070.26 492.751C1070.27 492.751 1069.59 491.927 1069.49 491.816" stroke="#00ADB5" stroke-opacity="0.5" stroke-linecap="round" stroke-linejoin="round"/>
<path d="M1068.05 488.585C1069.13 489.048 1070.22 489.507 1071.3 489.988C1071.55 490.1 1071.54 490.117 1071.45 490.03C1071.26 489.843 1071.11 489.641 1070.94 489.435" stroke="#00ADB5" stroke-opacity="0.5" stroke-linecap="round" stroke-linejoin="round"/>
<path d="M1069.07 486.289C1070.38 486.695 1071.68 487.133 1073 487.489C1073.15 487.529 1073.36 487.608 1073.22 487.46C1072.93 487.165 1072.6 486.905 1072.3 486.629" stroke="#00ADB5" stroke-opacity="0.5" stroke-linecap="round" stroke-linejoin="round"/>
<path d="M1069.75 483.398C1071.24 484.125 1072.72 484.909 1074.25 485.557C1074.5 485.663 1074.58 485.741 1074.53 485.542C1074.46 485.273 1074.36 485.018 1074.26 484.758" stroke="#00ADB5" stroke-opacity="0.5" stroke-linecap="round" stroke-linejoin="round"/>
<path d="M1071.62 481.357C1071.76 481.422 1075.87 483.655 1075.53 482.802" stroke="#00ADB5" stroke-opacity="0.5" stroke-linecap="round" stroke-linejoin="round"/>
<path d="M1072.47 479.996C1073.71 480.288 1074.97 480.554 1076.21 480.762" stroke="#00ADB5" stroke-opacity="0.5" stroke-linecap="round" stroke-linejoin="round"/>
<path d="M1073.83 478.636C1074.4 478.663 1074.97 478.691 1075.53 478.721" stroke="#00ADB5" stroke-opacity="0.5" stroke-linecap="round" stroke-linejoin="round"/>
<path d="M1062.61 504.146C1062.02 504.381 1058.38 505.286 1058.36 506.291C1058.35 506.684 1058.36 507.077 1058.4 507.467C1058.55 508.678 1059.39 509.312 1060.42 509.891C1061.74 510.626 1063.15 510.649 1064.58 510.231C1065.94 509.833 1066.83 508.329 1066.28 507.037C1066.17 506.769 1066.56 506.715 1066.31 506.404C1066.06 506.102 1065.9 506.277 1065.5 506.357" stroke="#00ADB5" stroke-opacity="0.5" stroke-linecap="round" stroke-linejoin="round"/>
<path d="M1060.82 507.292C1061.5 505.581 1062.34 503.87 1062.73 502.063C1062.84 501.589 1062.96 501.191 1063.22 500.764C1063.76 499.86 1064.24 498.895 1064.56 497.891C1064.87 496.938 1064.89 495.998 1065.29 495.066C1065.43 494.734 1066.29 493.737 1065.92 494.197" stroke="#00ADB5" stroke-opacity="0.5" stroke-linecap="round" stroke-linejoin="round"/>
<path d="M1067.54 495.047C1067.22 497.017 1066.75 498.902 1066.41 500.849C1066.23 501.928 1065.92 502.83 1065.92 503.967C1065.92 504.779 1066.21 505.457 1066.03 506.272C1065.81 507.21 1065.62 506.748 1065.24 506.102" stroke="#00ADB5" stroke-opacity="0.5" stroke-linecap="round" stroke-linejoin="round"/>
<path d="M1066.69 495.047C1066.1 496.277 1064.82 498.299 1064.82 499.852C1064.82 500.735 1064.87 501.672 1064.81 502.568C1064.74 503.634 1063.91 505.015 1063.41 505.932C1063.24 506.236 1063.03 506.471 1062.93 506.801C1062.8 507.213 1062.89 507.238 1062.61 506.782" stroke="#00ADB5" stroke-opacity="0.5" stroke-linecap="round" stroke-linejoin="round"/>
<path d="M1060.57 505.507C1062.01 506.543 1064.57 508.657 1066.35 506.829C1066.63 506.544 1067.03 505.936 1067.18 505.573C1067.39 505.076 1066.71 505.498 1066.26 505.592" stroke="#00ADB5" stroke-opacity="0.5" stroke-linecap="round" stroke-linejoin="round"/>
<path d="M1062.27 503.976C1063.09 503.95 1064.76 504.173 1065.56 503.759C1065.59 503.745 1065.5 503.768 1065.48 503.787C1065.4 503.85 1065.24 503.747 1065.16 503.721" stroke="#00ADB5" stroke-opacity="0.5" stroke-linecap="round" stroke-linejoin="round"/>
<path d="M1063.2 500.83C1063.81 500.99 1066 501.924 1066.09 500.915" stroke="#00ADB5" stroke-opacity="0.5" stroke-linecap="round" stroke-linejoin="round"/>
<path d="M1064.22 498.279C1064.97 498.769 1068.02 501.04 1067.54 498.619" stroke="#00ADB5" stroke-opacity="0.5" stroke-linecap="round" stroke-linejoin="round"/>
<path d="M1065.07 497.088C1065.84 497.287 1066.6 497.485 1067.37 497.683" stroke="#00ADB5" stroke-opacity="0.5" stroke-linecap="round" stroke-linejoin="round"/>
<path d="M1068.81 497.088C1069.76 497.98 1071.65 500.054 1071.71 501.614C1071.75 502.886 1071.71 504.116 1071.71 505.403C1071.71 506.339 1071.88 507.338 1071.79 508.228C1071.67 509.396 1069.87 509.411 1070.3 510.783C1070.45 511.242 1070.32 511.513 1070.72 511.842C1071.07 512.125 1071.32 512.455 1071.45 512.905C1071.75 513.955 1071.15 514.903 1070.43 515.626C1069.98 516.078 1069.39 516.987 1068.86 517.284C1068.59 517.43 1068.05 517.326 1067.75 517.326C1067.47 517.326 1066.9 517.509 1066.65 517.624C1066.28 517.794 1065.8 517.494 1065.33 517.667" stroke="#00ADB5" stroke-opacity="0.5" stroke-linecap="round" stroke-linejoin="round"/>
<path d="M1055.55 502.02C1055.89 503.159 1056.15 504.106 1056.72 505.081C1056.96 505.482 1056.92 505.846 1056.82 506.314C1056.7 506.859 1056.3 508.136 1056.61 508.695C1057.09 509.555 1057.08 510.465 1057.08 511.417C1057.08 512.334 1058.51 512.732 1058.98 513.202C1059.68 513.901 1059.38 514.792 1060.53 515.097C1060.78 515.163 1061.17 515.167 1061.37 515.328C1061.52 515.45 1061.69 515.755 1061.89 515.791C1062.29 515.865 1062.84 515.784 1063.2 515.947C1063.51 516.083 1063.73 516.279 1064.01 516.434C1064.32 516.604 1064.74 516.412 1065.07 516.58C1066.22 517.152 1065.71 516.608 1064.9 515.966" stroke="#00ADB5" stroke-opacity="0.5" stroke-linecap="round" stroke-linejoin="round"/>
<path d="M970.926 459.311C968.654 462.219 958.898 473.853 967.211 476.486C969.791 477.303 973.148 475.424 975.929 475.696C979.861 476.079 982.072 479.422 983.039 482.893C984.153 486.89 978.007 493.998 980.962 496.147C986.022 499.827 993.31 493.604 997.492 498.546C999.862 501.347 997.37 505.417 998.838 498.809" stroke="#00ADB5" stroke-opacity="0.5" stroke-linecap="round" stroke-linejoin="round"/>
<path d="M1085.04 414.02C1087.23 416.922 1092.44 423.459 1094.4 427.186C1096.07 430.359 1093.97 430.232 1092.18 428.971C1090.04 427.464 1090.34 424.258 1090.95 422.037C1093.01 414.541 1106.36 407.649 1107.86 419.17C1108.39 423.217 1104.77 430.021 1099.85 428.415C1093.34 426.295 1093.75 416.365 1098.68 412.675C1103.71 408.899 1111.96 413.237 1111.96 419.404C1111.96 426.25 1103.82 428.37 1100.66 422.33C1097.8 416.84 1102.88 411.097 1108.33 410.275C1110.34 409.973 1115.51 412.289 1111.9 413.494" stroke="#00ADB5" stroke-opacity="0.5" stroke-linecap="round" stroke-linejoin="round"/>
<path d="M1195.11 466.158C1191.7 469.546 1180.92 477.447 1189.99 480.523C1195.26 482.313 1200.15 479.379 1203.42 475.374C1207.02 470.955 1207.64 463.966 1201.9 461.096C1197.43 458.864 1193.58 455.278 1189.84 460.891" stroke="#00ADB5" stroke-opacity="0.5" stroke-linecap="round" stroke-linejoin="round"/>
<path d="M1311.5 512.502C1304.98 516.381 1295.1 521.066 1305.18 524.732C1306.73 525.295 1307.73 524.928 1309.1 523.971C1314.14 520.43 1314.43 519.012 1314.13 513.555C1313.93 509.942 1308.65 510.768 1306.23 511.975C1302.67 513.756 1300.18 517.321 1298.74 520.928C1296.8 525.782 1306.83 525.485 1308.22 519.641C1309.09 515.977 1304.9 510.773 1302.02 515.252C1298.2 521.187 1304.02 526.494 1307.69 520.285C1311.21 514.337 1303 511.884 1300.79 518.822C1297.89 527.944 1315.14 518.039 1308.86 514.901C1305.12 513.031 1298.81 524.908 1305.7 521.952C1314.08 518.363 1304.71 513.073 1304.71 521.455C1304.71 528.257 1315.96 518.385 1308.63 515.72C1306.95 515.111 1305.3 520.466 1306.49 521.66C1308.57 523.736 1312.18 518.359 1311.99 516.423C1311.2 508.112 1303.07 529.241 1312.75 519.553C1314.97 517.34 1314.88 513.34 1311.2 515.691C1309.04 517.078 1307.66 522.966 1311.76 521.601C1315.69 520.29 1315.69 513.007 1311.47 514.696C1308.89 515.728 1307.95 519.377 1305.18 518.822" stroke="#00ADB5" stroke-opacity="0.5" stroke-linecap="round" stroke-linejoin="round"/>
<path d="M1254.62 566.746C1253.53 567.946 1236.18 589.357 1244.91 578.449C1246.9 575.954 1248.73 573.5 1251.46 571.749C1253.14 570.669 1254.76 570.003 1256.2 568.56C1257.78 566.983 1255.54 567.087 1255.17 570.374C1254.86 573.236 1255.1 585.733 1254.62 585.705C1251.37 585.514 1249.23 582.312 1246.22 581.258C1244.61 580.693 1239.83 581.506 1241.16 580.438C1244.42 577.829 1254.41 570.346 1251.46 573.3C1249.22 575.537 1244.62 583.947 1246.19 581.199C1247.31 579.245 1250.33 572.879 1249.88 573.943C1248.95 576.136 1247.34 579.893 1247.48 582.311C1247.61 584.606 1252.17 578.958 1252.45 578.39C1254.57 574.164 1250.19 583.668 1251.75 581.404C1253.15 579.364 1257.89 574.179 1254.5 579.268C1253.76 580.382 1258.02 575.244 1257.25 576.342C1257.03 576.661 1255.1 579.898 1256.23 578.771C1260.27 574.733 1254.32 578.931 1253.57 577.805" stroke="#00ADB5" stroke-opacity="0.5" stroke-linecap="round" stroke-linejoin="round"/>
<path d="M1219.33 654.168C1221.18 651.543 1231.71 639.961 1223.05 639.451C1221.59 639.365 1218.57 638.89 1217.34 639.89C1214.44 642.269 1215.7 648.685 1219.63 649.399C1224.84 650.346 1229.72 643.222 1224.07 640.475C1218.18 637.606 1204.25 649.131 1210.26 653.875C1222.1 663.217 1232.8 636.07 1217.49 639.978C1203.61 643.523 1215.84 657.823 1222.14 648.609C1228.89 638.744 1208.08 638.659 1211.76 649.692C1213.57 655.133 1219.52 652.507 1220.59 648.112C1222.16 641.668 1215.75 644.329 1215.65 648.785C1215.54 653.56 1222.89 644.92 1218.49 645.303C1215.3 645.58 1214.99 649.955 1212.49 649.955" stroke="#00ADB5" stroke-opacity="0.5" stroke-linecap="round" stroke-linejoin="round"/>
<path d="M1009.73 604.664C1010.8 609.489 1012.89 624.088 1012.89 619.146C1012.89 615.735 1010.29 612.552 1009.76 609.14C1009.58 607.948 1009.96 604.422 1008.94 603.611C1008.25 603.056 1014.81 608.16 1016.55 609.14C1019.73 610.929 1022.01 614.271 1024.77 610.72C1026.1 609.016 1030 608.78 1030.53 608.35C1034.43 605.231 1034.08 600.575 1034.98 596.501C1035.3 595.048 1034.48 601.462 1034.48 603.347C1034.48 605.759 1034.92 608.953 1035.57 611.218C1036.49 614.434 1036.12 605.357 1035.24 603.611C1033.83 600.774 1033.96 598.257 1033.96 595.184C1033.96 593.971 1042.76 609.179 1041.21 610.34C1040.57 610.825 1031.95 608.447 1029.33 609.287C1027.09 610.01 1025.03 610.853 1022.9 611.92C1022.31 612.211 1021.35 613.273 1021.73 612.973C1023.06 611.903 1027.16 608.979 1025.53 609.521C1023.3 610.265 1021.11 612.424 1019.09 613.617C1015.3 615.866 1014.07 615.552 1012.48 619.41C1012.25 619.966 1015.09 619.895 1015.64 620.053C1019.63 621.192 1022.13 618.088 1025.65 616.66C1030.19 614.816 1035.4 611.03 1040.28 610.457C1043.96 610.024 1038.36 608.734 1038.17 608.35" stroke="#00ADB5" stroke-opacity="0.5" stroke-linecap="round" stroke-linejoin="round"/>
<path d="M1210.91 401.908C1220.83 398.726 1236.91 395.067 1245.78 387.806C1247.39 386.488 1249.89 385.225 1249.32 382.685C1247.2 373.145 1242.59 370.908 1233.49 371.919C1228.45 372.479 1223.61 377.133 1218.92 379.028C1214.1 380.98 1209.28 383.544 1204.88 386.343C1200.43 389.176 1203.01 390.579 1203.01 395.471C1203.01 398.161 1204.62 401.908 1207.48 401.908C1208.79 401.908 1212.54 400.855 1208.83 400.855C1205.92 400.855 1201.4 401.296 1198.79 399.918C1196.81 398.866 1200.73 396.795 1201.66 396.671C1204.99 396.227 1197.85 399.483 1197.13 399.714C1195.64 400.188 1202.48 395.011 1198.68 396.232C1194.56 397.555 1200.67 394.006 1201.95 393.365C1203.4 392.64 1202.14 393.787 1202.48 393.189C1203.03 392.232 1206.19 388.716 1203.33 391.58C1202.37 392.539 1205.49 389.945 1206.55 389.093C1208.53 387.489 1206.01 389.923 1205.52 390.322C1203.27 392.16 1202.74 390.677 1200.9 391.492C1200.13 391.833 1198.27 392.963 1198.27 391.638C1198.27 389.353 1206.33 388.311 1207.81 388.244C1216.83 387.834 1223.14 383.855 1231.45 381.779C1235.44 380.779 1239.81 379.34 1243.56 377.565C1246.34 376.249 1251.9 372.129 1254.85 372.972C1256.01 373.303 1238.13 383.708 1243.27 380.316C1247.52 377.509 1252.39 375.538 1246.02 380.813C1240.91 385.039 1249.89 380.117 1250.61 380.403C1251.9 380.919 1242.68 386.183 1249.7 382.949C1252.39 381.712 1254.62 381.651 1254.62 378.736C1254.62 374.779 1255.7 370.089 1250.67 371.919C1244.86 374.03 1240.2 378.544 1234.2 380.316C1230.06 381.537 1226.03 383.079 1221.97 384.529C1217.26 386.21 1208.74 388.091 1205.38 392.194C1203.59 394.381 1200.4 402.904 1206.99 399.216C1213.03 395.833 1213.99 388.989 1217.23 383.592C1218.84 380.912 1214.42 389.254 1213.77 392.311C1213.03 395.828 1216.34 399.875 1220.12 399.216C1224.28 398.494 1228.65 392.757 1230.13 389.268C1237.26 372.5 1224.33 388.764 1227.99 392.428C1231.88 396.317 1237.81 386.015 1238.59 383.475C1239.52 380.415 1240.07 376.643 1241.19 373.733C1242.64 369.957 1233.37 374.209 1232.5 374.64C1227.68 377.023 1224.31 380.202 1221.03 384.412C1219.84 385.936 1215.08 393.109 1218.34 394.74C1222.71 396.925 1228.08 390.132 1228.2 386.606C1228.61 374.663 1218.78 380.784 1212.84 385.465C1209.17 388.358 1212.36 394.139 1213.01 393.482" stroke="#00ADB5" stroke-opacity="0.5" stroke-linecap="round" stroke-linejoin="round"/>
<path d="M1077.67 687.346C1077.44 687.529 1068.77 695.003 1068.77 692.876C1068.77 691.63 1069.73 690.296 1070.59 689.482C1072.28 687.872 1078.95 686.634 1077.35 690.565C1076.27 693.201 1071.86 697.087 1070.62 692.115C1070.1 690.051 1073.64 685.908 1075.8 687.668C1078.17 689.609 1073.07 692.082 1071.47 691.208C1068.6 689.647 1072.04 684.09 1074.8 685.24C1077.69 686.443 1073.72 689.731 1072.4 690.389C1069.33 691.927 1069.76 689.441 1068.19 687.873" stroke="#00ADB5" stroke-opacity="0.5" stroke-linecap="round" stroke-linejoin="round"/>
<path d="M934.949 686.82C937.985 691.822 943.767 697.013 937.875 701.566C936.355 702.74 927.39 707.435 927.927 701.975C928.581 695.326 938.49 695.178 939.103 689.219C939.71 683.325 925.635 685.546 922.427 681.553C920.417 679.052 918.796 673.509 919.267 670.318C919.45 669.075 922.602 666.663 922.28 668.914C921.692 673.034 908.407 683.588 916.282 687.054C921.563 689.377 922.925 683.494 926.815 682.08C934.828 679.166 922.836 700.777 922.836 695.246" stroke="#00ADB5" stroke-opacity="0.5" stroke-linecap="round" stroke-linejoin="round"/>
<path d="M1193 755.283C1190.56 761.054 1185.63 778.84 1185.63 772.574C1185.63 771.597 1185.82 770.825 1186.16 769.912C1187.74 765.621 1189.58 761.628 1192.24 757.857C1193.7 755.799 1195.43 749.772 1197.51 754.346C1198.48 756.48 1201.25 762.422 1200.08 764.762C1198.61 767.7 1194.05 769.385 1191.01 769.502C1190.22 769.532 1181.91 770.624 1184.61 768.156C1187.77 765.256 1190.83 756.436 1195.61 755.839C1196.34 755.746 1197.88 756.239 1198.53 756.599C1199.67 757.233 1198.28 758.378 1197.74 759.262C1197.09 760.322 1191.96 767.483 1191.95 767.161C1191.8 762.362 1196.73 755.395 1199.38 751.772C1200.33 750.473 1195.27 759.291 1194.11 761.281C1193.22 762.82 1194.39 766.092 1190.37 765.289" stroke="#00ADB5" stroke-opacity="0.5" stroke-linecap="round" stroke-linejoin="round"/>
<path d="M1029.74 331.865C1027.39 341.057 1025.3 349.815 1024.45 359.192C1024.36 360.129 1023.77 360.736 1024.36 361.474C1025.24 362.572 1027.56 355.59 1028.46 353.72C1031.29 347.795 1034.48 345.457 1034.48 338.184C1034.48 337.135 1034.48 331.096 1034.48 335.083C1034.48 338.468 1035.13 341.814 1034.89 345.206C1034.72 347.77 1032.26 354.689 1034.07 352.872C1036.88 350.067 1034.63 336.005 1030.24 335.639C1024.25 335.14 1021.36 348.129 1020.67 352.17C1019.88 356.871 1023.19 358.839 1026.85 355.183C1031.84 350.193 1032.92 339.935 1028.63 334.088C1022.74 326.056 1018.88 340.549 1018.39 344.095C1017.3 352.115 1021.77 354.685 1027.08 348.981C1029.03 346.882 1032.97 343.254 1032.14 339.998C1031.05 335.668 1024.64 339.873 1023.37 341.754C1021.55 344.421 1021.58 351.064 1024.51 352.96C1027.24 354.729 1029.9 347.396 1029.6 345.557C1028.3 337.761 1013.6 350.137 1020.91 354.569C1027.27 358.426 1031.48 341.171 1023.66 343.305C1021.48 343.899 1016.31 349.771 1020.79 349.771" stroke="#00ADB5" stroke-opacity="0.5" stroke-linecap="round" stroke-linejoin="round"/>
<path d="M890.184 481.957C887.818 488.662 886.114 492.942 880.12 496.703C878.615 497.647 876.626 499.318 876.316 501.209C875.655 505.249 882.028 509.701 885.649 508.494C893.281 505.95 881.733 498.397 880.5 496.205C878.354 492.389 886.112 485.534 889.687 487.545C892.47 489.111 893.704 494.566 892.057 497.229C889.658 501.11 884.502 501.263 880.471 500.653C877.26 500.166 870.83 500.828 872.718 505.597C875.08 511.565 886.23 508.437 887.902 503.374C889.531 498.444 880.716 496.586 882.607 491.963C883.906 488.788 888.007 484.824 891.647 484.824C896.007 484.824 891.653 492.969 891.004 494.245C888.135 499.883 883.747 500.445 878.189 501.969C867.728 504.837 878.997 505.241 879.652 501.969" stroke="#00ADB5" stroke-opacity="0.5" stroke-linecap="round" stroke-linejoin="round"/>
<path d="M877.545 554.107C876.427 558.316 873.122 565.501 873.449 570.081C873.602 572.228 874.189 565.84 874.444 563.703C874.93 559.632 875.486 555.034 877.662 551.473C878.048 550.841 886.98 561.991 887.785 563.82C889.939 568.716 887.242 567.784 883.865 569.379C881.987 570.266 869.177 574.787 869.177 573.592C869.177 572.34 871.592 569.795 872.162 568.735C873.943 565.42 875.855 561.258 876.609 557.559C878.218 549.658 877.018 565.917 877.018 567.155C877.018 567.907 877.31 572.305 875.555 572.305C873.359 572.305 877.04 568.171 877.779 566.102C878.562 563.909 881.681 557.444 880.91 555.131C879.817 551.854 879.271 561.89 879.154 565.341C879.075 567.681 877.943 571.586 879.769 567.799C880.35 566.592 882.228 561.645 882.197 562.006C881.932 565.051 880.705 568.19 880.705 571.252C880.705 574.385 882.358 564.298 885.21 563.001C885.92 562.678 884.918 568.625 884.918 569.496C884.918 571.081 886.439 563.405 886.439 564.99C886.439 565.432 885.808 568.103 885.328 567.272C883.358 563.871 881.876 561.768 877.838 560.543C875.998 559.985 870.152 560.368 872.074 560.368C873.337 560.368 875.322 555.971 876.726 557.12C878.589 558.644 876.032 563.51 875.438 565.166C874.467 567.877 873.858 564.064 876.258 564.347C878.758 564.641 876.207 573.873 877.603 571.778C878.252 570.806 880.215 566.01 880.149 566.57C878.874 577.406 879.139 563.608 881.231 566.746" stroke="#00ADB5" stroke-opacity="0.5" stroke-linecap="round" stroke-linejoin="round"/>
<path d="M1138.23 410.861C1144.93 410.53 1151.4 413.007 1150.34 405.068C1149.82 401.134 1147.62 394.702 1148.76 390.848C1149.98 386.757 1157.48 377.53 1151.08 374.64C1145.71 372.216 1138.69 379.07 1137.71 383.709C1137.29 385.639 1137.38 391.668 1140.57 391.668C1142.98 391.668 1144.52 389.3 1146.63 391.404C1149.38 394.155 1149.87 396.665 1147.92 400.123C1143.22 408.424 1124.66 399.152 1134.66 389.151C1136.03 387.781 1141.45 381.494 1144.02 383.3C1147.56 385.784 1147.08 392.253 1145.25 395.471C1143.43 398.68 1136.74 402.041 1134.11 397.929C1132.81 395.897 1133.43 394.535 1135.6 394.535" stroke="#00ADB5" stroke-opacity="0.5" stroke-linecap="round" stroke-linejoin="round"/>
<path d="M1194.34 460.146C1194.95 459.896 1214.22 450.385 1213.32 455.611C1212.84 458.415 1213.17 461.031 1213.56 463.832C1213.71 464.904 1216.32 473.253 1213.71 473.253C1208.83 473.253 1204.07 470.805 1199.19 471.732C1197.17 472.116 1193.14 473.502 1192.99 470.269C1192.88 467.844 1190.86 456.945 1195.65 458.01C1199.6 458.887 1199.77 455.754 1196.97 462.72C1196.57 463.709 1193.96 471.14 1194.4 470.795C1198.78 467.353 1201.18 460.735 1205.19 456.722C1207.7 454.217 1203.4 464.273 1202.88 465.529C1200.21 471.947 1207.03 460.09 1207.8 458.917C1211.16 453.766 1208.61 462.987 1208.09 464.505C1206.53 469.068 1211.32 460.548 1213.24 459.414C1219.59 455.658 1213.59 468.63 1212.24 465.939" stroke="#00ADB5" stroke-opacity="0.5" stroke-linecap="round" stroke-linejoin="round"/>
<path d="M1142.44 559.373C1142.75 567.114 1142.61 571.337 1149.17 566.453C1151.04 565.068 1150.24 568.346 1149.79 569.145C1149.03 570.48 1144.55 577.189 1149.06 574.616C1150.2 573.965 1153.27 572.665 1153.27 575.172C1153.27 575.568 1151.89 580.412 1153.24 579.063C1155.45 576.853 1155.49 568.521 1155.61 565.283C1155.64 564.576 1155.95 563.754 1155.32 564.113C1152.09 565.957 1150.56 575.615 1148.88 579.385C1147.43 582.64 1143.26 578.805 1140.86 577.279C1136.32 574.385 1139.18 576.44 1139.28 576.225" stroke="#00ADB5" stroke-opacity="0.5" stroke-linecap="round" stroke-linejoin="round"/>
<path d="M1106.11 628.363C1106.09 628.608 1105.47 643.726 1105.58 636.379C1105.61 634.137 1105.55 631.893 1105.58 629.65C1105.67 623.281 1106.8 626.236 1109.56 628.86C1110.82 630.063 1115.46 632.66 1114.71 635.092C1114.49 635.809 1107.05 637.104 1105.87 637.55C1104.99 637.884 1099.79 641.161 1099.79 641.002C1099.79 637.089 1101.17 632.854 1101.63 628.948C1102.61 620.677 1108.34 642.818 1108.71 637.228C1108.8 635.912 1108.74 628.077 1108.74 630.031C1108.74 631.485 1109.79 639.241 1109.79 634.156C1109.79 633.005 1109.79 631.854 1109.79 630.703C1109.79 630.161 1110.09 632.758 1110.29 632.254C1111.02 630.43 1109.79 626.762 1109.79 631.23C1109.79 636.246 1108.39 632.634 1105.32 632.634C1102.69 632.634 1101.19 642.26 1102.54 640.007C1103.72 638.035 1101.39 630.002 1102.42 634.127C1102.96 636.286 1104.26 633.899 1105.05 633.103" stroke="#00ADB5" stroke-opacity="0.5" stroke-linecap="round" stroke-linejoin="round"/>
<path d="M160.8 387.198C135.184 387.916 139.904 386.945 119.18 406.898C114.447 411.455 107.29 416.998 105.668 425.094C103.275 437.042 117.926 473.189 127.517 459.885C133.716 451.288 132.522 436.52 123.092 432.615C107.628 426.21 95.1944 445.147 90.3869 461.51C85.094 479.526 89.5391 499.234 102.013 511.263C107.712 516.758 116.904 514.27 111.862 502.599C101.491 478.596 89.4966 507.714 91.1206 523.661C94.0456 552.385 118.717 590.119 141.799 584.135C149.016 582.264 146.657 578.09 143.628 575.002C140.555 571.869 132.828 560.427 134.903 564.772C138.529 572.367 143.131 575.423 148.271 579.883C154.901 585.635 140.68 598.205 136.56 602.692C134.398 605.047 131.256 610.322 130.671 614.164C129.515 621.748 137.854 601.931 139.346 594.482" stroke="#00ADB5" stroke-opacity="0.2" stroke-width="5" stroke-linecap="round" stroke-linejoin="round"/>
</svg>
